<svg width="41" height="41" viewBox="0 0 41 41" fill="none" xmlns="http://www.w3.org/2000/svg">
<g clip-path="url(#clip0_10_679)">
<path d="M20.282 0.449463L23.0579 2.76051L23.8128 3.39959C23.8468 3.42703 23.9426 3.52547 23.98 3.53677C24.0384 3.55291 24.1666 3.53677 24.2316 3.53677H24.967L28.9149 3.52547C28.9831 3.52547 29.5464 3.51256 29.574 3.53032C29.5968 3.54323 29.6227 3.60294 29.6357 3.62715L29.7981 3.90957L31.5253 6.76933L31.85 7.3019C31.9149 7.40841 31.975 7.53107 32.0578 7.62467C32.1925 7.77637 32.3873 7.88773 32.5529 8.00554L33.5853 8.72694L37.3385 11.364L37.3515 15.6875V16.4815C37.3515 16.5348 37.3353 16.6639 37.3515 16.7058C37.3661 16.7462 37.4408 16.822 37.47 16.8575L37.8077 17.2707L38.5723 18.1987L40.0333 19.9013C40.1047 19.9852 40.5122 20.4193 40.5235 20.492C40.5268 20.5194 40.2281 20.8502 40.1924 20.8922L37.871 23.6212L37.4619 24.107C37.4229 24.1538 37.3483 24.228 37.3255 24.2813C37.2833 24.3765 37.3158 25.4594 37.3158 25.6547L37.3125 29.5312L35.9911 30.4833L34.0236 31.9116L32.7542 32.8283L32.3435 33.1204C32.2591 33.1817 32.1633 33.2366 32.0967 33.3173C32.0009 33.4319 31.9263 33.5819 31.85 33.7111L31.4133 34.4373L29.9442 36.8274C29.9133 36.8791 29.6308 37.3874 29.6146 37.3971C29.5968 37.4068 29.4636 37.3971 29.436 37.3971L28.8598 37.3955L25.2072 37.3858L24.4183 37.381C24.3371 37.381 24.2089 37.3616 24.1326 37.3793C24.1147 37.3826 24.0595 37.4342 24.0433 37.4455L23.7446 37.6941L20.2901 40.5764L19.4216 39.8453L17.8794 38.5591L17.0645 37.9039L16.6538 37.5472C16.6148 37.5117 16.5418 37.4229 16.4979 37.4036C16.4476 37.381 16.3161 37.3939 16.2577 37.3939L15.5093 37.389L10.998 37.3858C10.7886 36.9404 10.4769 36.5337 10.2123 36.1205L9.02079 34.2307L8.58411 33.5416C8.5208 33.4399 8.46723 33.3124 8.38119 33.2285C8.28866 33.1398 8.16853 33.0671 8.06464 32.9913L7.34062 32.4732L4.30171 30.2816L3.27251 29.5425L3.29036 25.3642L3.28874 24.5799C3.28874 24.5072 3.30497 24.3797 3.28712 24.312C3.279 24.2845 3.19296 24.2022 3.17186 24.1764L2.83258 23.7713L2.08584 22.8708L1.1102 21.7475L0.468979 20.9923L0.0907385 20.5613C0.0728817 20.5404 0.0306746 20.5258 0.0355446 20.5C0.0387913 20.4855 2.45596 17.6516 2.74979 17.3014L3.13939 16.843C3.17673 16.7994 3.24978 16.7284 3.26439 16.6752C3.28225 16.6058 3.26601 16.4686 3.26601 16.3911V15.4357L3.26926 11.3801L5.34552 9.91796L7.28543 8.51391L8.18801 7.86998C8.28379 7.80058 8.40229 7.7328 8.48346 7.64727C8.56138 7.56334 8.6182 7.44553 8.68151 7.35032L9.25455 6.43526L11.0467 3.5868C11.0532 3.57712 11.0548 3.56259 11.0662 3.55614C11.0792 3.54807 11.2042 3.55614 11.2269 3.55775L11.8649 3.56098L15.4622 3.55937L16.2626 3.56098C16.3242 3.56098 16.4557 3.57712 16.5093 3.55452C16.5613 3.53354 16.6181 3.47544 16.6635 3.43994L17.0369 3.13653L19.0158 1.4904L20.282 0.449463Z" fill="#DE9551"/>
<path d="M20.2805 1.67773C20.3844 1.74229 20.485 1.84558 20.5775 1.92304L21.1782 2.43302L23.1619 4.06463L23.5418 4.37449C23.5742 4.40031 23.6424 4.47132 23.6781 4.48423C23.7074 4.49553 23.8048 4.48423 23.8388 4.48423H24.4476L28.144 4.48262H28.8177C28.8534 4.48262 28.967 4.46971 28.9962 4.48262C29.0303 4.49714 29.1521 4.73115 29.1764 4.7715L30.6001 7.14548L31.0628 7.92175C31.139 8.04763 31.2153 8.1961 31.3079 8.30907C31.4004 8.42204 31.5774 8.52049 31.6975 8.60764L33.0091 9.52915L35.1585 11.0591C35.5611 11.3464 35.9539 11.6498 36.3727 11.9112L36.3695 16.3541L36.3711 16.9884C36.3711 17.0239 36.3597 17.1449 36.3711 17.1675C36.3971 17.216 36.4864 17.2853 36.5253 17.3273L36.8679 17.7195L38.5935 19.7352L39.1828 20.4404C39.199 20.4598 39.2363 20.4743 39.2314 20.4985C39.2266 20.5163 39.1373 20.6002 39.1211 20.6196L38.8126 20.9746L36.8224 23.3099L36.4994 23.6843C36.4653 23.7214 36.389 23.786 36.3662 23.8295C36.3533 23.8554 36.3646 28.5468 36.3727 29.0084L34.3971 30.4754L31.9978 32.178L31.6049 32.4572C31.4962 32.5315 31.3809 32.596 31.3095 32.709L29.566 35.5736C29.5141 35.6591 29.0806 36.4144 29.0514 36.4321C29.0271 36.4483 28.3193 36.4289 28.2365 36.4289L24.6375 36.4305L23.9525 36.4321C23.9151 36.4321 23.8015 36.4192 23.7723 36.4321C23.6895 36.4677 23.5742 36.5919 23.5028 36.6516L22.8454 37.2068L20.3194 39.2919C20.2967 39.3097 20.287 39.3145 20.2594 39.3226L17.4818 37.026L16.9445 36.5774C16.8974 36.5387 16.8211 36.4564 16.7708 36.4338C16.7383 36.4192 16.636 36.4273 16.5971 36.4257L15.8292 36.4208C15.4413 36.4208 11.5923 36.4354 11.5744 36.4225C11.5241 36.3886 9.7579 33.5627 9.58583 33.2867L9.30824 32.8365C9.26116 32.7574 9.21246 32.6606 9.15077 32.5928C9.0485 32.4798 8.8813 32.3798 8.7563 32.2894L7.8391 31.6406L4.23527 29.0149L4.22553 25.0415V24.1136C4.22553 24.0426 4.24501 23.8973 4.22553 23.8344C4.21741 23.8086 4.14598 23.744 4.12488 23.7182L3.78073 23.3244C3.52749 23.0323 1.34733 20.5373 1.3457 20.4808C1.3457 20.4759 1.45934 20.3501 1.47232 20.3355L2.15251 19.5447L3.80995 17.592L4.10215 17.2644C4.13787 17.2256 4.21092 17.1691 4.23202 17.1272C4.26449 17.061 4.24501 16.8996 4.24501 16.8238V11.929L8.14267 9.10309L8.92837 8.53017C9.03551 8.45271 9.17837 8.36879 9.26765 8.27357C9.34557 8.18965 9.40239 8.07506 9.46408 7.97823L9.84719 7.36497L11.4478 4.7828C11.477 4.73599 11.5907 4.52619 11.6329 4.50844C11.6556 4.49876 11.7595 4.50844 11.7887 4.50844H12.3699L16.0078 4.51328L16.5614 4.51812C16.6198 4.51974 16.7497 4.54394 16.8 4.52942C16.8763 4.51005 17.0159 4.36319 17.0825 4.30832L17.9396 3.59338L19.3487 2.45077L20.2805 1.67773Z" fill="#FEBA48"/>
<path d="M29.6635 32.3604L29.6652 32.6557H27.2236L28.3161 30.5416C28.4347 30.5222 29.6165 30.5222 29.6652 30.5464L29.6765 30.6529C29.657 30.6416 29.6165 30.611 29.597 30.6077C29.5093 30.5932 29.3892 30.6077 29.2983 30.6077C28.9866 30.6077 28.67 30.619 28.3584 30.598L27.3259 32.6008L29.6246 32.6105C29.6262 32.5347 29.6165 32.4217 29.6635 32.3604Z" fill="#010001"/>
<path d="M10.1622 8.63818V10.3327L8.31319 10.3392C8.29858 10.3247 8.3067 10.336 8.29858 10.3037C9.00961 9.84212 9.69142 9.35796 10.1622 8.63818Z" fill="#010001"/>
<path d="M10.0746 8.88672L10.0941 8.89156C10.1379 8.98032 10.1217 9.15139 10.1233 9.25306L10.1217 10.2762H8.58924L8.51294 10.265C8.56002 10.1794 8.7256 10.1068 8.81001 10.0471L9.26942 9.7001C9.56162 9.46932 9.84571 9.17883 10.0746 8.88672Z" fill="#2C1E3F"/>
<path d="M30.4167 8.57056C30.4914 8.67384 30.5547 8.7852 30.6164 8.89656C30.6489 8.95627 30.6781 9.03051 30.7236 9.08054C30.821 9.18382 30.9849 9.26936 31.1002 9.35812L32.3794 10.3264L30.4395 10.3313L30.4167 8.57056Z" fill="#2C1E3F"/>
<path d="M8.13452 30.5868L10.1264 30.5852V32.3976C9.93482 32.0942 9.73677 31.7908 9.47216 31.5438C9.25626 31.3437 9.00139 31.1839 8.76276 31.0113C8.55822 30.8628 8.35854 30.6998 8.13452 30.5868Z" fill="#DE9551"/>
<path d="M32.3275 30.5172L32.3583 30.5156L32.3713 30.5366L30.4671 32.1069L30.4412 32.1117C30.3908 32.0359 30.4184 30.7303 30.4184 30.5285L32.3275 30.5172Z" fill="#DE9551"/>
<path d="M13.9526 8.70925L14.0013 8.69312C14.8617 9.03203 15.7042 9.55976 16.2545 10.315C16.2074 10.3392 16.0906 10.3263 16.0354 10.3263L15.4477 10.3247L13.1328 10.3167C13.3195 9.74696 13.6361 9.21439 13.9526 8.70925Z" fill="#1B9E9B"/>
<path d="M30.4038 24.5864C30.5905 24.7268 30.7869 24.8511 30.9671 24.998C31.5174 25.4466 31.9525 26.0357 32.2252 26.6893L31.6765 26.962L30.4184 27.5559L30.4038 24.5864Z" fill="#010001"/>
<path d="M30.467 24.6978C30.7706 24.9221 31.0742 25.1448 31.3372 25.4175C31.5839 25.6725 31.7917 25.9824 31.9605 26.2922C32.0206 26.4036 32.118 26.5488 32.144 26.6715L31.6245 26.9265L30.4768 27.4591L30.467 24.6978Z" fill="#1B9E9B"/>
<path d="M10.0371 13.4765C10.0761 13.4668 10.0956 13.4668 10.1362 13.4765L10.1475 16.5638C9.84233 16.2895 9.5696 16.0151 9.30987 15.6956C8.9365 15.2162 8.61508 14.6966 8.39917 14.1285C8.92351 13.8622 9.47058 13.6395 10.0371 13.4765Z" fill="#1B9E9B"/>
<path d="M10.1118 24.4895L10.1458 24.5089L10.1296 27.8108L9.05982 27.1217L8.28711 26.6537C8.58743 26.105 9.02573 25.6031 9.46566 25.1641C9.67345 24.9575 9.92182 24.7493 10.0955 24.5137L10.1118 24.4895Z" fill="#010001"/>
<path d="M10.0307 24.6865C10.0551 24.6881 10.0421 24.6833 10.0697 24.7059V27.698L9.08594 27.0621L8.37329 26.6199C8.66225 26.1761 8.98529 25.7614 9.34568 25.374L10.0307 24.6865Z" fill="#1B9E9B"/>
<path d="M23.8097 9.84381L24.2318 10.3231C24.3974 10.2182 24.5272 10.0552 24.6652 9.91804C24.8048 9.77925 24.9542 9.65014 25.1068 9.52588C25.5857 9.13855 26.1133 8.87388 26.6392 8.56079C26.959 9.11273 27.2415 9.66467 27.4379 10.2731H27.9184C27.9769 10.2731 28.0467 10.286 28.097 10.2521L28.1295 10.2941C28.0791 10.3296 28.0012 10.3247 27.9395 10.3296L25.5191 10.3344C25.0808 10.3344 24.6246 10.3102 24.1896 10.357L23.7432 9.86479C23.774 9.84703 23.7724 9.84381 23.8097 9.84381Z" fill="#010001"/>
<path d="M26.5808 8.67048C26.6084 8.66564 26.5921 8.66725 26.6327 8.68016C26.9347 9.19498 27.1717 9.71949 27.386 10.2763H25.2155L24.3958 10.2795C24.4331 10.2036 24.5678 10.1052 24.6328 10.0423C24.9737 9.71464 25.3243 9.4064 25.7285 9.15625L26.5808 8.67048Z" fill="#1B9E9B"/>
<path d="M30.4363 13.4331C31.0775 13.5671 31.6814 13.8075 32.209 14.1965C32.032 14.7452 31.7009 15.2487 31.3454 15.6973L30.7707 16.288C30.709 16.3429 30.5126 16.5382 30.4395 16.5349L30.4363 13.4331Z" fill="#010001"/>
<path d="M30.4995 13.5042C31.1002 13.6671 31.6407 13.8576 32.144 14.232C31.9329 14.7404 31.6667 15.21 31.3225 15.6409C31.0823 15.9314 30.8096 16.188 30.5157 16.4268L30.4995 13.5042Z" fill="#3E7A64"/>
<path d="M29.6635 32.3604C29.6148 32.4217 29.6261 32.5347 29.6229 32.6089L27.3242 32.5992L28.3567 30.5964C28.6684 30.6174 28.9849 30.6061 29.2966 30.6061C29.3875 30.6061 29.5076 30.5916 29.5953 30.6061C29.6148 30.6093 29.6554 30.64 29.6748 30.6513L29.67 31.8036C29.67 31.9844 29.6878 32.1845 29.6635 32.3604Z" fill="#DE9551"/>
<path d="M28.0986 10.2537C27.9752 9.58393 27.6684 8.97551 27.3064 8.40259L29.7008 8.40743V10.3344L27.9411 10.3311C28.0028 10.3263 28.0807 10.3311 28.1311 10.2956L28.0986 10.2537Z" fill="#2C1E3F"/>
<path d="M11.2969 8.33477C11.9251 8.26376 12.6589 8.31702 13.2676 8.46872C12.9348 8.92545 12.7157 9.48223 12.5063 10.0035C12.4673 10.11 12.4348 10.2375 12.378 10.3343L10.8602 10.3263L10.8569 8.36705L11.2969 8.33477Z" fill="#2C1E3F"/>
<path d="M8.11515 27.3557L10.1297 28.6065C10.1102 28.7307 10.1297 28.8631 10.1297 28.9922V29.8879L10.0762 29.9201H8.79695C8.62325 29.9201 8.44306 29.9314 8.27261 29.9072C8.22229 29.9008 8.17846 29.9121 8.12651 29.8975C8.10378 29.8378 8.11515 29.7587 8.11515 29.6958V27.3557Z" fill="#CC2D03"/>
<path d="M30.4346 11.0735H32.4053L32.4102 13.5023C32.2641 13.4055 32.0904 13.3216 31.9281 13.2522C31.5742 13.1005 31.2268 12.9585 30.855 12.8536C30.7576 12.8261 30.6553 12.7858 30.5547 12.7713C30.506 12.7648 30.4865 12.7584 30.4476 12.7277L30.4346 11.0735Z" fill="#CC2D03"/>
<path d="M32.415 27.4058L32.467 27.3977C32.4881 27.4623 32.4767 27.5478 32.4767 27.6156V28.0174L32.4751 29.8411L30.4881 29.8379C30.4475 29.833 30.4508 29.8395 30.4199 29.8088V28.3467L32.415 27.4058Z" fill="#010001"/>
<path d="M32.386 27.4834C32.3957 27.4931 32.4119 27.4995 32.4152 27.5124C32.4217 27.5367 32.4152 27.598 32.4152 27.627V27.9708L32.4168 29.7783H30.5272L30.4818 29.7493L30.4785 28.3872L32.386 27.4834Z" fill="#CC2D03"/>
<path d="M10.8018 30.5721L12.2774 30.5657L13.2741 32.654L10.8018 32.6508V30.5721Z" fill="#2C1E3F"/>
<path d="M8.09242 11.072L10.1378 11.0785L10.1313 12.773C9.90895 12.8037 9.69791 12.8699 9.48363 12.9344C9.06156 13.0829 8.6054 13.2459 8.22716 13.4864L8.20443 13.5009C7.97878 12.6972 7.98203 11.8886 8.09242 11.072Z" fill="#010001"/>
<path d="M8.14933 11.1445L10.0714 11.1494L10.0649 12.7019C10.0081 12.739 9.8993 12.7471 9.83112 12.7648C9.70125 12.7987 9.57463 12.8423 9.44801 12.8875L8.25647 13.4023L8.24511 13.3894C8.14933 12.9375 8.07141 12.4711 8.06816 12.0079C8.06654 11.7207 8.1055 11.4286 8.14933 11.1445Z" fill="#CC2D03"/>
<path d="M22.5548 4.79736L23.9168 5.9432L22.0776 7.76847C22.0354 7.81043 22.0013 7.85078 21.9461 7.8766C21.8665 7.73942 21.6961 7.60225 21.5841 7.48282L20.7432 6.54517L22.5548 4.79736Z" fill="#CC2D03"/>
<path d="M18.0096 4.75537L19.844 6.5403L19.3245 7.11322C19.1443 7.33109 18.9268 7.52152 18.7498 7.74423C18.7173 7.78458 18.6443 7.87012 18.5972 7.87657L18.5534 7.81847L17.1865 6.44024C17.008 6.26271 16.8261 6.04968 16.6249 5.89798L16.5989 5.87862L18.0096 4.75537Z" fill="#CC2D03"/>
<path d="M34.2445 20.9988L36.0692 22.7724L35.1114 23.8876C35.0692 23.9376 34.9604 24.1151 34.9134 24.1426C34.902 24.149 34.889 24.1474 34.8777 24.1506L34.8241 24.1055L33.5985 22.9064C33.3874 22.6982 33.1748 22.4416 32.9394 22.264L32.9102 22.2431L32.9848 22.1704C33.428 21.8105 33.7949 21.3506 34.2445 20.9988Z" fill="#CC2D03"/>
<path d="M5.63796 16.8464C5.75484 16.8497 6.00159 17.1482 6.08925 17.237L7.62656 18.8105L6.40742 19.9563L6.34411 19.9999L6.32139 20.0177C5.98048 19.7578 5.72075 19.3753 5.38958 19.1026C5.29705 19.0268 5.224 18.9396 5.13959 18.8541L4.49512 18.1908L5.63796 16.8464Z" fill="#CC2D03"/>
<path d="M34.9069 16.8464L34.9654 16.8367L36.0985 18.202L34.7543 19.5399L34.3923 19.8917C34.3469 19.9337 34.3063 19.9869 34.243 19.9966L34.1845 19.9514L34.1245 19.8901C33.868 19.6819 33.6439 19.4318 33.3907 19.2203L32.9248 18.7959L34.2089 17.5193C34.4329 17.2966 34.6569 17.0416 34.9069 16.8464Z" fill="#CC2D03"/>
<path d="M20.2496 34.9103L20.3081 34.9038L22.0158 36.5967L20.2789 38.0508L18.5305 36.6113L20.2496 34.9103Z" fill="#1B9E9B"/>
<path d="M20.2902 2.90259L22.0402 4.37604L20.287 6.06252L18.5029 4.36313L20.2902 2.90259Z" fill="#1B9E9B"/>
<path d="M4.06819 18.7378C4.29059 18.9008 4.48864 19.1429 4.68344 19.3398L5.82141 20.4856C5.78407 20.5453 5.71914 20.5921 5.66881 20.6405L5.38635 20.9246L4.20617 22.1237L4.07631 22.2625L2.57471 20.4743L4.06819 18.7378Z" fill="#1B9E9B"/>
<path d="M36.5205 18.7168C36.7267 18.9088 36.9085 19.1832 37.0887 19.4027L38.0075 20.4888L36.5043 22.2689L36.3549 22.114L34.7429 20.4953L36.5205 18.7168Z" fill="#1B9E9B"/>
<path d="M26.9459 33.3594L29.5498 33.361L28.3794 35.2831L27.4346 35.2815L24.8259 35.3073L24.7966 35.3105L26.9459 33.3594Z" fill="#010001"/>
<path d="M26.9962 33.4255H29.4572L28.3452 35.2201H27.4751L24.9946 35.2363L26.9962 33.4255Z" fill="#1B9E9B"/>
<path d="M27.2722 34.1403C27.329 34.1323 27.3972 34.1274 27.4556 34.1355C27.5384 34.1484 27.6228 34.2275 27.6651 34.2969C27.7186 34.384 27.7381 34.5035 27.7073 34.6019C27.6732 34.7116 27.5823 34.7633 27.4881 34.8149C27.4329 34.8182 27.3745 34.8246 27.3193 34.8165C27.2203 34.802 27.1342 34.7375 27.0806 34.6568C27.0401 34.5954 27.0271 34.4954 27.0417 34.4244C27.0693 34.2824 27.1553 34.213 27.2722 34.1403Z" fill="#FEFEFE"/>
<path d="M35.2412 25.177L35.2298 28.4386L33.1568 29.8152V27.8302L33.1552 27.3573C33.1552 27.3154 33.1422 27.2234 33.1552 27.1863C33.1568 27.1798 33.2104 27.1362 33.2169 27.1314L33.5058 26.8651L34.5707 25.8435C34.7883 25.6353 35.0334 25.4401 35.2217 25.2061L35.2412 25.177Z" fill="#1B9E9B"/>
<path d="M34.2528 27.1879C34.3031 27.183 34.3599 27.175 34.4102 27.1879C34.4865 27.2072 34.5547 27.2653 34.5953 27.3331C34.6375 27.4041 34.6473 27.4881 34.6245 27.5687C34.5953 27.672 34.5255 27.7253 34.433 27.7721C34.3534 27.785 34.2869 27.7689 34.2073 27.7543C34.1554 27.7108 34.1051 27.6688 34.071 27.6091C34.0369 27.5494 34.0336 27.4429 34.0547 27.3783C34.0872 27.2815 34.1635 27.2331 34.2528 27.1879Z" fill="#FEFEFE"/>
<path d="M5.36182 25.0688C5.52415 25.2738 5.72058 25.461 5.90077 25.6482L7.05984 26.8167L7.35691 27.1217C7.37315 27.1394 7.42022 27.1814 7.42834 27.2024C7.43808 27.2282 7.42834 27.3057 7.42834 27.3331V27.7059L7.42672 29.8104L5.36669 28.395L5.36182 25.0688Z" fill="#010001"/>
<path d="M5.43829 25.2578L5.4529 25.2643C5.57952 25.3627 5.70939 25.5402 5.8214 25.6564L6.72886 26.5812L7.18664 27.0427C7.23696 27.0928 7.33437 27.167 7.36846 27.2251C7.38469 27.2525 7.36521 29.5184 7.36521 29.6959L5.43018 28.3596L5.43829 25.2578Z" fill="#1B9E9B"/>
<path d="M6.29703 27.2057H6.31488C6.36683 27.2041 6.42527 27.1976 6.47722 27.2122C6.55352 27.2331 6.63306 27.3025 6.66228 27.3752C6.69637 27.4575 6.68825 27.5591 6.65579 27.6414C6.61683 27.7399 6.53566 27.7786 6.44475 27.819C6.39605 27.8206 6.34248 27.8254 6.2954 27.8141C6.21748 27.7964 6.14118 27.748 6.09898 27.6802C6.05839 27.614 6.03891 27.5188 6.06164 27.4446C6.09898 27.3235 6.19313 27.2638 6.29703 27.2057Z" fill="#FEFEFE"/>
<path d="M7.77419 14.5999C7.82938 14.6241 7.94139 14.8968 7.97873 14.9646C8.3797 15.7102 8.93001 16.4606 9.60046 16.9867L9.62968 17.0093L8.17353 18.3214L8.05178 18.1923L6.10376 16.196C6.19142 16.0652 6.3359 15.9474 6.44791 15.8345L7.77419 14.5999Z" fill="#DE9551"/>
<path d="M24.7966 5.59937L28.2852 5.61389L29.579 7.70868L27.1391 7.71513L24.7966 5.59937Z" fill="#010001"/>
<path d="M24.9395 5.67041L28.2608 5.68493L29.4378 7.61672L29.4183 7.65061L27.5693 7.64416L27.2641 7.64739C27.2511 7.64739 27.1829 7.65384 27.1716 7.649C27.1456 7.6377 27.0936 7.57638 27.0693 7.55378L26.7446 7.26329L24.9395 5.67041Z" fill="#1B9E9B"/>
<path d="M27.2171 6.30298C27.2756 6.30782 27.347 6.30943 27.4006 6.33526C27.4769 6.37076 27.5515 6.46275 27.5726 6.54344C27.597 6.63059 27.5937 6.74356 27.5467 6.82264C27.4785 6.94045 27.3859 6.97273 27.2609 7.00501C27.1976 7.00178 27.1359 6.98887 27.0791 6.96143C26.9963 6.9227 26.9411 6.83555 26.9119 6.75163C26.8843 6.6661 26.8892 6.57249 26.9363 6.49341C27.0012 6.38367 27.097 6.33526 27.2171 6.30298Z" fill="#FEFEFE"/>
<path d="M32.4004 22.6594L34.4572 24.6832L32.8923 26.4536C32.4686 25.4417 31.7689 24.6154 30.8225 24.049L32.4004 22.6594Z" fill="#DE9551"/>
<path d="M33.1358 11.0769C33.3355 11.1834 33.5222 11.3416 33.7073 11.4723L35.2332 12.5649L35.2543 15.8765C34.5985 15.1083 33.9069 14.4499 33.1099 13.8269L33.1358 11.0769Z" fill="#010001"/>
<path d="M33.1958 11.1768L35.1779 12.6147L35.1892 15.702L34.5675 15.0226C34.1389 14.5836 33.673 14.1882 33.186 13.8138L33.1958 11.1768Z" fill="#1B9E9B"/>
<path d="M34.1391 13.2185C34.191 13.2233 34.2511 13.225 34.2998 13.2476C34.3712 13.2782 34.428 13.3476 34.4524 13.4186C34.4865 13.5155 34.4767 13.6074 34.4296 13.6994C34.3793 13.7963 34.3079 13.8318 34.2089 13.864C34.1407 13.864 34.0579 13.8673 33.9946 13.8382C33.9264 13.8043 33.855 13.7253 33.8355 13.651C33.8128 13.5655 33.8193 13.4509 33.8696 13.3767C33.9361 13.275 34.0238 13.2395 34.1391 13.2185Z" fill="#FEFEFE"/>
<path d="M10.9058 33.3045C11.1639 33.3077 13.469 33.2851 13.5405 33.319C13.6281 33.361 13.7515 33.511 13.8278 33.5804L14.7028 34.3712L15.8034 35.3347L12.2207 35.3315L10.9058 33.3045Z" fill="#010001"/>
<path d="M11.021 33.3625L13.5031 33.3674L15.6216 35.275L12.2482 35.2734L11.021 33.3625Z" fill="#1B9E9B"/>
<path d="M13.1605 34.1388H13.1832C13.2384 34.1372 13.3017 34.1276 13.3537 34.1453C13.43 34.1679 13.4949 34.2373 13.529 34.3051C13.5696 34.3874 13.5761 34.4665 13.5452 34.552C13.503 34.6666 13.4413 34.7069 13.3358 34.7602C13.2839 34.765 13.2319 34.765 13.18 34.7586C13.0956 34.7473 13.0193 34.6876 12.9722 34.6182C12.9316 34.5585 12.9154 34.4536 12.9332 34.3842C12.9608 34.2599 13.0582 34.2002 13.1605 34.1388Z" fill="#FEFEFE"/>
<path d="M7.31802 11.1914L7.36185 11.1785C7.39757 11.2688 7.35861 11.4431 7.35211 11.5416L7.33426 12.1468C7.33913 12.7165 7.42354 13.2975 7.56315 13.8494C6.7953 14.4175 6.09564 15.0759 5.45279 15.7796L5.32617 15.9248L5.32942 12.6148L7.31802 11.1914Z" fill="#010001"/>
<path d="M7.2514 11.3091H7.26926C7.27737 11.3155 7.29036 11.3188 7.29523 11.3284C7.3001 11.3365 7.29036 11.3962 7.28874 11.4108L7.27413 11.7513C7.26763 12.116 7.27088 12.4743 7.31309 12.8358C7.35042 13.1699 7.42185 13.4975 7.48516 13.8267L5.53552 15.589L5.39916 15.7343L5.39429 12.6696C5.50467 12.5372 5.71733 12.4146 5.85857 12.3113L7.2514 11.3091Z" fill="#1B9E9B"/>
<path d="M6.22402 13.1975C6.26785 13.1959 6.31331 13.1943 6.35551 13.2007C6.43668 13.212 6.51298 13.2653 6.55681 13.3331C6.60389 13.4057 6.61525 13.5203 6.58927 13.6026C6.55518 13.7107 6.45454 13.7736 6.35876 13.8204L6.21266 13.8172C6.14448 13.8075 6.07467 13.7527 6.03734 13.6978C5.98052 13.6139 5.96428 13.4977 5.99513 13.4008C6.0276 13.2911 6.12987 13.2411 6.22402 13.1975Z" fill="#FEFEFE"/>
<path d="M32.7932 14.6047L33.4442 15.1518C33.8273 15.5004 34.1633 15.8861 34.488 16.2864L32.5238 18.2359L32.3906 18.3699L30.9053 17.0626C31.1959 16.8593 31.4588 16.5962 31.6926 16.3299C32.1536 15.8103 32.5238 15.2454 32.7932 14.6047Z" fill="#DE9551"/>
<path d="M16.068 6.32568L18.1507 8.4592L16.7855 9.94556L16.6491 9.75836C16.0728 9.01114 15.2531 8.47695 14.3992 8.09286C14.4138 8.0283 14.5274 7.92179 14.5729 7.86369C14.766 7.62 14.9576 7.37792 15.1735 7.15359C15.456 6.85987 15.7628 6.59358 16.068 6.32568Z" fill="#DE9551"/>
<path d="M23.7447 9.86633L22.4492 8.44613L23.6895 7.20024C23.9622 6.92588 24.2398 6.60472 24.5433 6.36426L26.3712 7.97811C25.6748 8.31541 25.0303 8.6979 24.4524 9.21433L24.0385 9.61457C23.9638 9.69203 23.8989 9.78402 23.8096 9.84535C23.7722 9.84373 23.7739 9.84696 23.7447 9.86633Z" fill="#DE9551"/>
<path d="M12.2774 5.60421C12.477 5.63326 12.6832 5.62357 12.8845 5.62519H13.8585L15.0533 5.62357C15.3065 5.62196 15.5647 5.63164 15.8163 5.60421L15.8552 5.59937C15.1507 6.13194 14.5355 6.75166 13.9949 7.44885C13.9722 7.46337 13.9332 7.53277 13.917 7.55697L13.7043 7.86845C13.4851 7.79421 13.2481 7.75871 13.0192 7.72643C12.3163 7.62476 11.6248 7.63928 10.9219 7.72159L12.2774 5.60421Z" fill="#010001"/>
<path d="M12.3067 5.67837L15.6605 5.67676C15.4187 5.83976 15.1833 6.06731 14.9755 6.27066C14.6135 6.62409 14.2758 6.98721 13.969 7.38906L13.6752 7.7893C13.5843 7.78445 13.4869 7.74734 13.3992 7.72636C13.2742 7.69731 13.146 7.67794 13.0194 7.66019C12.37 7.57304 11.7093 7.56981 11.0583 7.63759L12.3067 5.67837Z" fill="#1B9E9B"/>
<path d="M13.2303 6.3418C13.2855 6.34825 13.3358 6.35632 13.3829 6.3886C13.4624 6.44186 13.5079 6.52093 13.5241 6.61292C13.5403 6.70169 13.5111 6.78399 13.4608 6.855C13.4024 6.93731 13.3212 6.96636 13.2254 6.98573C13.1783 6.98573 13.141 6.97766 13.0988 6.9599C13.0128 6.9244 12.9446 6.85016 12.9154 6.7614C12.891 6.68555 12.9056 6.58872 12.9478 6.52093C13.0209 6.41281 13.1069 6.36762 13.2303 6.3418Z" fill="#FEFEFE"/>
<path d="M6.30844 20.9438L7.61686 22.1526L5.74351 24.0844L6.22565 24.5992C6.41071 24.4717 6.5909 24.2377 6.74999 24.0747L8.15419 22.6206C8.45938 22.9483 8.81651 23.242 9.15417 23.5357L9.45611 23.7988C9.51131 23.8472 9.58598 23.8972 9.6217 23.9618L9.54865 24.0425C9.10709 24.4604 8.65743 24.8994 8.27269 25.3707C8.05029 25.6418 7.85711 25.9323 7.65744 26.2195C7.33764 25.9403 7.0568 25.5901 6.76947 25.2787L4.50977 22.7611L6.30844 20.9438Z" fill="#DE9551"/>
<path d="M6.32141 21.0261L7.54055 22.1574L5.75973 23.9859L5.70616 24.0247C5.61525 23.944 5.53571 23.8423 5.45454 23.7503L4.96754 23.1951C4.85065 23.0612 4.68832 22.9111 4.59741 22.761L6.32141 21.0261Z" fill="#CC2D03"/>
<path d="M24.1197 30.5576L27.4849 30.5673L26.5174 32.4636L24.1765 30.627L23.7496 31.1612L26.1456 33.0946L24.532 34.5535L23.6863 33.7708L22.9395 33.0672C22.7869 32.9235 22.6376 32.7718 22.4704 32.6459L22.0223 33.1818L23.959 34.9893L22.5402 36.1868L20.7561 34.4115L24.1197 30.5576Z" fill="#DE9551"/>
<path d="M24.3179 30.6448H27.373L26.8016 31.7664L26.5013 32.3635L24.3179 30.6448Z" fill="#1B9E9B"/>
<path d="M21.9624 33.2222L23.8731 34.9958L22.6766 35.9996L22.5403 36.1029L20.8325 34.4035L21.9624 33.2222Z" fill="#CC2D03"/>
<path d="M16.6653 33.9629L16.0516 34.5939C15.9331 34.531 15.8016 34.3809 15.6978 34.2921L14.2692 33.022L16.7546 31.3L16.2773 30.7836C16.2026 30.8127 16.1344 30.874 16.0695 30.9192L15.701 31.1758C15.1036 31.5889 14.4819 31.9843 13.9169 32.441L13.0273 30.5657L16.1442 30.5254C16.2546 30.669 16.3958 30.8014 16.5192 30.9337L17.4364 31.8875L19.8259 34.3954C19.6003 34.5713 19.4006 34.7908 19.1977 34.9925L18.0208 36.1836C17.886 36.119 17.7286 35.948 17.6117 35.8495L16.6344 35.02L18.5191 33.1495C18.5029 33.0817 18.0922 32.6944 18.0159 32.6153L16.9315 33.6902C16.8877 33.7467 16.7172 33.95 16.6653 33.9629Z" fill="#010001"/>
<path d="M15.3828 30.6175L16.0987 30.6062L16.2351 30.7418L13.9413 32.3476L13.1248 30.6256L15.3828 30.6175Z" fill="#1B9E9B"/>
<path d="M18.537 33.2172L18.563 33.2075C18.5743 33.2059 18.5873 33.2059 18.5971 33.2107C18.6539 33.2349 18.7951 33.4173 18.8438 33.469L19.7366 34.3856C19.485 34.6196 18.1117 36.0592 17.9818 36.0899L16.7205 35.0183L18.537 33.2172Z" fill="#CC2D03"/>
<path d="M16.6653 33.963C16.5857 33.9921 16.5192 34.0776 16.4575 34.1341L16.0468 34.5311L14.3601 33.035C14.5273 32.8898 14.7335 32.772 14.9153 32.6461L16.1831 31.7698C16.3812 31.6358 16.5955 31.5164 16.774 31.355L16.8 31.3308L17.9915 32.5654L17.1701 33.3982C17.1052 33.4659 16.9867 33.5612 16.9396 33.6386C16.9315 33.6532 16.9331 33.6725 16.9299 33.6903C16.8877 33.7468 16.7172 33.9501 16.6653 33.963Z" fill="#DE9551"/>
<path d="M20.2707 7.11157C20.4363 7.25682 20.584 7.43596 20.7334 7.59734L21.4006 8.31551L23.8518 11.08L29.7024 11.0671L29.7202 16.9674L33.7429 20.484L29.6813 24.1491L29.7024 29.8557L23.7642 29.8766C23.7496 29.8766 23.6798 29.875 23.6716 29.8815C23.6262 29.9138 23.5629 30.0251 23.5255 30.0735L23.0288 30.7255C22.2009 31.7826 21.274 32.7606 20.3422 33.7257C20.3194 33.7483 20.334 33.737 20.2918 33.758L16.5987 29.9008L16.5808 29.8783L10.8163 29.8815L10.8228 24.1329C10.8228 24.1071 10.8293 24.0506 10.8115 24.0296C10.7417 23.9425 10.6264 23.857 10.542 23.7795L9.49655 22.8919L6.84399 20.4985C6.87321 20.4356 6.95438 20.3742 7.00471 20.3258L7.47223 19.882L9.43811 18.1148L10.8618 16.8528C10.8861 16.6688 10.8667 16.4671 10.8667 16.2799V15.1195L10.878 11.0784L16.7545 11.0817L20.2707 7.11157Z" fill="#010001"/>
<path d="M20.2691 7.21484C20.5889 7.49243 20.8763 7.84425 21.1636 8.15572L22.9899 10.1843L23.584 10.8654C23.6457 10.9364 23.7334 11.0736 23.808 11.1252C23.8795 11.1752 29.0661 11.1414 29.6472 11.1397L29.6554 16.9819L33.6602 20.4953L29.6196 24.1184L29.618 29.804L23.6473 29.7943L20.3016 33.6756C19.951 33.2706 19.5484 32.8945 19.1734 32.5088L17.4997 30.7594L16.9689 30.1929C16.8569 30.0719 16.7335 29.9525 16.641 29.8169L16.6296 29.7992L10.8829 29.8185L10.8911 24.0006L6.92358 20.4888L10.9089 16.8948C10.9251 16.877 10.9284 16.8706 10.9316 16.8463C10.9544 16.6866 10.9349 16.4929 10.9349 16.3315L10.9365 15.1889L10.9398 11.1527L16.7952 11.1446L20.2691 7.21484Z" fill="#1B9E9B"/>
<path d="M20.3081 8.59155C20.5971 8.86591 20.8503 9.18868 21.1101 9.49209L21.9851 10.5443C22.5256 11.2657 23.0191 12.1356 23.2594 13.0087C24.2074 12.5342 25.2886 12.2711 26.3438 12.2018C27.1148 12.1501 27.9038 12.1824 28.6781 12.1824L28.67 14.0932C28.6327 14.7936 28.5223 15.5102 28.3405 16.1864C28.2187 16.6415 28.058 17.095 27.8275 17.5081L27.8827 17.5243C28.2106 17.634 28.5385 17.8147 28.8405 17.981C29.9038 18.5652 30.8697 19.2704 31.7885 20.058L32.1261 20.3501C32.1748 20.3921 32.2479 20.4437 32.2771 20.5018C32.0174 20.7633 31.7219 20.9957 31.4411 21.2313C30.3583 22.1431 29.1554 23.0808 27.8015 23.5504C28.2674 24.3944 28.5093 25.3143 28.5905 26.2714C28.6489 26.9605 28.6246 27.6738 28.6213 28.3661C28.6213 28.4856 28.6489 28.6792 28.5629 28.7632C28.4476 28.8035 28.308 28.7922 28.1863 28.7938L27.5856 28.7954L26.2041 28.789C25.2269 28.7389 24.3048 28.5065 23.4217 28.0918C23.3357 28.2435 23.2854 28.4259 23.2156 28.5856C23.0954 28.8616 22.9558 29.1295 22.8016 29.3893C22.4997 29.8993 22.123 30.3238 21.7302 30.7643L20.3179 32.2652C20.2903 32.2765 20.3065 32.2717 20.2659 32.2733C19.5841 31.5584 18.9234 30.8208 18.3699 30.0026C17.9478 29.378 17.5971 28.7147 17.2838 28.0305C16.7465 28.3113 16.1377 28.4614 15.5436 28.5743C14.3618 28.797 13.1735 28.8584 11.9722 28.8503C11.9154 27.7367 11.9463 26.6684 12.1329 25.5677C12.2498 24.8754 12.4268 24.1782 12.719 23.5359C12.4885 23.4616 12.2596 23.3325 12.0453 23.2212C11.1703 22.7661 10.3765 22.219 9.61026 21.6041C9.17195 21.2523 8.74339 20.8891 8.36353 20.476C9.69143 19.2866 11.0372 18.1569 12.6898 17.4452C12.245 16.5317 11.9998 15.5134 11.9235 14.5031C11.8667 13.7285 11.8976 12.928 11.8894 12.1517L13.4284 12.163C13.8537 12.1646 14.2855 12.1501 14.7092 12.1824C15.6394 12.2502 16.5046 12.5358 17.3244 12.9732C17.5273 12.4325 17.7546 11.8967 18.0484 11.3964C18.4462 10.7186 18.9526 10.1183 19.464 9.52436C19.7383 9.20482 19.9981 8.88043 20.3081 8.59155Z" fill="#010001"/>
<path d="M22.6929 14.4031L22.7221 14.4192C22.8487 15.2665 22.8504 16.117 22.8504 16.9707C22.4575 17.0272 22.0501 17.1031 21.6913 17.279C21.5971 17.1628 21.5273 16.9982 21.4478 16.8674L20.9023 16.1234L22.6929 14.4031Z" fill="#1B9E9B"/>
<path d="M13.1166 22.8337L12.7433 23.4695C11.1524 22.7707 9.69136 21.7088 8.46411 20.4888C9.73357 19.2961 11.1215 18.2181 12.7238 17.5063L13.076 18.139C12.5988 18.3843 12.1231 18.6231 11.6654 18.9039C11.0598 19.2735 10.4901 19.706 9.96409 20.1821L9.59559 20.4968C10.4722 21.3457 11.529 22.0526 12.615 22.6061C12.7579 22.6755 12.9624 22.8111 13.1166 22.8337Z" fill="#FEE08D"/>
<path d="M17.9884 27.6318C18.2936 28.279 18.6264 28.9181 19.0257 29.5152C19.4007 30.0768 19.8244 30.59 20.2854 31.0823L21.2546 30.0171C21.4981 29.7444 21.7513 29.47 21.9478 29.1634C22.2578 28.6808 22.4526 28.187 22.6409 27.6528C22.7416 27.6899 22.852 27.7722 22.9429 27.8303L23.3406 28.0547C23.313 28.2419 23.1912 28.4662 23.1117 28.6405C22.9234 29.0488 22.6912 29.4765 22.4266 29.8396C22.2302 30.1091 21.9948 30.3576 21.7724 30.6046L20.2919 32.2023C19.3098 31.1743 18.4348 30.0881 17.7628 28.8342C17.6183 28.5646 17.4706 28.2919 17.3521 28.0111L17.9884 27.6318Z" fill="#FEE08D"/>
<path d="M17.99 13.3732L17.4056 13.0214C17.391 12.9827 17.4202 12.931 17.4332 12.8907L17.6718 12.2903C17.9738 11.6109 18.3536 10.9992 18.8082 10.4118L19.675 9.37408L20.0971 8.87701C20.1588 8.81084 20.2221 8.73338 20.2984 8.68335L21.1101 9.61293C21.3909 9.93893 21.6766 10.2601 21.9348 10.6055C22.4818 11.3414 22.9218 12.1596 23.1945 13.0343L22.5679 13.4023C22.438 13.1037 22.3406 12.7955 22.1977 12.5017C21.7107 11.4979 21.0159 10.6894 20.2984 9.84694L19.7449 10.486C19.3796 10.9202 19.0484 11.3753 18.7514 11.8578C18.503 12.2597 18.2952 12.697 18.1036 13.1279C18.0728 13.1973 18.0566 13.3006 18.0079 13.3555L17.99 13.3732Z" fill="#FEE08D"/>
<path d="M28.7919 18.8992C28.3373 18.6233 27.8454 18.3973 27.3406 18.2295L27.7854 17.5581C29.4363 18.2036 30.8779 19.3446 32.1976 20.4953C31.2918 21.3103 30.3324 22.1076 29.2886 22.7418C28.8097 23.0339 28.3016 23.3051 27.7691 23.4858L27.3698 22.8532L27.3909 22.8064C27.5338 22.7854 27.701 22.7047 27.8341 22.6498C29.011 22.1786 30.0986 21.3345 31.0434 20.5002C30.5694 20.0773 30.0597 19.7029 29.5289 19.3543C29.2886 19.1978 29.0467 19.0316 28.7919 18.8992Z" fill="#FEE08D"/>
<path d="M25.9801 13.0474C25.1344 13.1217 24.2626 13.4348 23.4932 13.7834L23.2805 13.0668C24.0695 12.7101 24.8795 12.4422 25.7415 12.3277C26.6863 12.2018 27.6619 12.247 28.6132 12.2518C28.6148 12.9571 28.6376 13.6672 28.5856 14.3708C28.5385 14.9857 28.42 15.6215 28.2577 16.2154C28.1376 16.6496 27.9915 17.0837 27.7707 17.4775L27.3129 17.3338C27.2366 17.3113 27.1457 17.2951 27.0792 17.2532C27.2106 17.0434 27.2902 16.7932 27.3714 16.5624C27.7804 15.4037 27.8795 14.2256 27.8356 13.0071L26.6993 12.9942C26.4736 12.9958 26.1993 12.9893 25.9801 13.0474Z" fill="#FEE08D"/>
<path d="M17.99 13.3734L18.0078 13.354C18.0565 13.2991 18.0728 13.1958 18.1036 13.1264C18.2952 12.6955 18.503 12.2582 18.7513 11.8563C19.05 11.3738 19.3812 10.9203 19.7448 10.4845L20.2984 9.84546C21.0159 10.6879 21.7107 11.4964 22.1977 12.5003C22.3406 12.794 22.438 13.1022 22.5678 13.4008C22.5208 13.4492 22.4721 13.5025 22.4185 13.546C22.3503 13.6009 22.1928 13.6719 22.1782 13.7607C22.1604 13.7978 21.5419 14.2916 21.4672 14.361C21.0484 14.7516 20.6669 15.1744 20.2773 15.5908C20.1458 15.4117 19.9802 15.2454 19.8292 15.0824C19.2789 14.4837 18.6734 13.9721 18.0257 13.4799C18.0306 13.4314 18.0176 13.4121 17.99 13.3734Z" fill="#DE9551"/>
<path d="M20.3 10.1084C20.3227 10.1181 20.3129 10.1116 20.3308 10.1471C20.3633 10.2149 20.3811 10.3021 20.4038 10.3747L20.5564 10.8653C20.7967 11.7093 20.9087 12.6922 20.7805 13.5637C20.6977 14.1188 20.5224 14.653 20.2951 15.1646C20.248 15.0839 20.209 14.9968 20.1733 14.9096C19.5581 13.4313 19.6896 11.5657 20.3 10.1084Z" fill="#1B9E9B"/>
<path d="M9.9642 20.1805C9.98855 20.1805 10.0129 20.1886 10.0356 20.1837C10.1006 20.166 10.2191 20.0369 10.2694 19.9933L10.6752 19.6657C11.2142 19.217 11.8278 18.8474 12.4479 18.5198C12.6736 18.4004 12.9122 18.31 13.1281 18.1729C13.1801 18.2261 13.2401 18.3036 13.3067 18.3359L13.3278 18.3439C13.4934 18.5182 13.633 18.7183 13.7969 18.8959C14.1395 19.267 14.5096 19.6076 14.8911 19.9384C15.107 20.1256 15.3261 20.3225 15.5599 20.4887C14.8521 21.073 14.1768 21.6975 13.568 22.385L13.1914 22.8482C13.1541 22.824 13.1573 22.8304 13.1167 22.8353C12.9609 22.8127 12.7564 22.6771 12.6151 22.6061C11.5291 22.0526 10.4723 21.3457 9.5957 20.4968L9.9642 20.1805Z" fill="#DE9551"/>
<path d="M12.3115 19.9773C13.2806 19.9514 14.2984 20.1144 15.1994 20.4727C14.7059 20.6502 14.2027 20.8052 13.6832 20.8891C13.3179 20.9472 12.9478 20.9698 12.5777 20.9827C11.6199 21.0311 10.6248 20.768 9.70923 20.5147C9.91864 20.4178 10.1621 20.3597 10.3862 20.3C11.0274 20.1257 11.6475 20.0144 12.3115 19.9773Z" fill="#1B9E9B"/>
<path d="M18.3633 27.2444C18.5046 27.0943 18.6702 26.962 18.8195 26.8183L19.7757 25.8484C19.9396 25.6725 20.1149 25.4966 20.2594 25.3062L21.8519 26.9071L22.3795 27.3558C22.4185 27.388 22.5337 27.4574 22.5565 27.4994C22.5597 27.5446 22.5776 27.5978 22.61 27.6301L22.6376 27.6527C22.4493 28.1869 22.2545 28.6807 21.9445 29.1633C21.748 29.4715 21.4948 29.7459 21.2513 30.017L20.2821 31.0821C19.8211 30.5899 19.3974 30.0751 19.0224 29.5151C18.6231 28.918 18.2919 28.2789 17.9851 27.6317C18.0452 27.5543 18.1247 27.4962 18.2043 27.4381C18.2724 27.3896 18.3504 27.3235 18.3633 27.2444Z" fill="#DE9551"/>
<path d="M20.2692 25.4192L20.7042 25.8888C20.7221 26.0228 20.7123 26.1632 20.7123 26.2987V27.0282C20.7107 27.8658 20.7513 28.7389 20.649 29.57C20.6068 29.9154 20.4997 30.2317 20.4055 30.5642C20.373 30.6755 20.3519 30.8353 20.2919 30.9337L20.2708 30.9111C20.2188 30.6061 20.1084 30.3253 20.024 30.0284C19.9007 29.591 19.8308 29.1294 19.8033 28.6776C19.761 27.9997 19.8162 27.3074 19.8162 26.6264C19.8162 26.4085 19.8357 26.1745 19.8049 25.9582L19.8016 25.9405L20.2692 25.4192Z" fill="#197C82"/>
<path d="M26.9882 18.5813L27.0126 18.5765C27.1262 18.5345 27.2301 18.3586 27.3113 18.2715C27.6846 18.4167 28.0434 18.5458 28.4021 18.7298C28.4882 18.7734 28.7008 18.9138 28.7918 18.8993C29.0466 19.0316 29.2885 19.1978 29.5271 19.3544C30.058 19.703 30.5677 20.079 31.0417 20.5002C30.0969 21.3362 29.0093 22.1786 27.8324 22.6515C27.6992 22.7047 27.532 22.7854 27.3892 22.808C27.2983 22.7871 27.2544 22.7306 27.2009 22.6579C27.0661 22.474 26.8389 22.1431 26.6343 22.0431H26.6294L25.0662 20.4954C25.2983 20.3179 25.5061 20.1048 25.7171 19.9031L26.9882 18.5813Z" fill="#DE9551"/>
<path d="M27.3631 20.0756C27.6228 20.0497 27.8956 20.0562 28.1569 20.0627C29.014 20.0804 29.9718 20.2031 30.7738 20.5178C30.639 20.5904 30.4377 20.6259 30.2868 20.663C29.7819 20.7873 29.2868 20.889 28.7689 20.9406L27.8517 20.9874C27.0011 20.9906 26.2073 20.8373 25.4297 20.4968L26.342 20.2095C26.678 20.1272 27.0189 20.0982 27.3631 20.0756Z" fill="#197C82"/>
<path d="M25.98 13.0472C26.1992 12.9891 26.4719 12.994 26.6992 12.9907L27.8355 13.0036C27.8794 14.2221 27.7803 15.4002 27.3712 16.559C27.2901 16.7897 27.2105 17.0415 27.079 17.2497L27.0498 17.2271L27.0287 17.2416C26.9865 17.2674 26.9476 17.2626 26.9102 17.2965L24.7528 17.0108C24.6716 16.9511 24.4752 16.9673 24.3681 16.935L23.7431 16.9479L23.7593 16.1039C23.7041 15.9231 23.7577 15.7149 23.6781 15.5455L23.657 15.5697L23.6538 15.5681L23.571 14.5368C23.6246 14.3786 23.5499 14.1059 23.5044 13.9494C23.4931 13.9122 23.4866 13.8832 23.4866 13.8428C24.1392 13.5507 24.7869 13.3264 25.4817 13.165L25.7057 13.1182L25.7609 13.1085L25.8209 13.0924C25.8794 13.0843 25.9102 13.0811 25.9638 13.0569L25.98 13.0472Z" fill="#DE9551"/>
<path d="M23.7577 16.1039C24.6002 15.255 25.4606 14.4836 26.4638 13.8251L27.1602 13.412C27.3631 13.3022 27.5791 13.2022 27.7609 13.0618C27.4979 13.441 27.2722 13.8364 26.9963 14.2076C26.4752 14.9096 25.8388 15.5713 25.2073 16.1733C24.9346 16.4331 24.6603 16.701 24.3664 16.935L23.7415 16.9479L23.7577 16.1039Z" fill="#1B9E9B"/>
<path d="M13.3278 18.3441C13.107 18.0149 12.8895 17.684 12.7142 17.329C12.2873 16.4656 12.073 15.4844 12.0032 14.5306C11.9464 13.7704 11.9739 12.9877 11.9675 12.2244L13.5941 12.2276C14.0876 12.2308 14.5859 12.2308 15.0745 12.2921C15.6719 12.368 16.2742 12.5455 16.8196 12.8005C17.2401 12.9974 17.6346 13.2395 18.029 13.4799C18.6751 13.9722 19.2806 14.4838 19.8326 15.0825C19.9836 15.2455 20.1475 15.4133 20.2806 15.5909C20.6702 15.1729 21.0517 14.7501 21.4705 14.3611C21.5452 14.2917 22.1637 13.7979 22.1816 13.7608C22.3277 13.6559 23.1036 13.1007 23.214 13.1168C23.2806 13.3412 23.378 13.5816 23.4186 13.8092C22.7205 14.2191 22.1215 14.7694 21.555 15.3423L20.8098 16.1154C21.1199 16.5237 21.404 16.9158 21.6378 17.3742C22.0501 17.1773 22.4689 17.0934 22.9186 17.0272L22.7806 14.3192L23.438 13.8931L23.5695 14.537L23.6523 15.5683L23.6556 15.5699L23.6767 15.5457C23.7578 15.7151 23.7043 15.9233 23.7578 16.1041L23.7416 16.9481L24.3666 16.9352C24.4754 16.9675 24.6702 16.953 24.7513 17.0111L26.9088 17.2967L27.7042 17.5388L26.9867 18.5813L25.7156 19.9015C25.5046 20.1032 25.2968 20.3162 25.0646 20.4938L26.6279 22.0415H26.6328C26.8195 22.2851 27.0354 22.5062 27.2123 22.7596C27.6604 23.4003 28.0337 24.083 28.2561 24.835C28.6263 26.0793 28.5613 27.4317 28.5532 28.7148L27.1474 28.7374C26.8016 28.7374 26.4542 28.7454 26.1085 28.7196C25.4429 28.668 24.7627 28.5437 24.1345 28.3145C23.5744 28.1096 23.0566 27.8223 22.5549 27.5028C22.5322 27.4608 22.417 27.3914 22.378 27.3591L21.8504 26.9105L20.2595 25.3063C20.115 25.4967 19.9397 25.6726 19.7758 25.8485L18.8196 26.8185C18.6703 26.9621 18.5047 27.0944 18.3635 27.2445C17.9576 27.5705 17.542 27.8465 17.0648 28.0579C16.4723 28.321 15.8245 28.4646 15.1866 28.5679C14.1314 28.739 13.1054 28.7793 12.0389 28.7842C11.9561 27.3995 12.0454 25.9954 12.4058 24.6511C12.5064 24.275 12.6428 23.9103 12.7791 23.5456L13.4853 23.7618C13.3262 24.1734 13.1622 24.5962 13.073 25.0287L13.1022 25.0352C13.1184 24.9545 13.159 24.8754 13.1833 24.7947L13.5356 23.7651C13.7044 23.7747 13.8603 23.8038 14.0307 23.807C14.0713 23.807 14.1022 23.8119 14.1427 23.8054L14.1768 23.7989C13.9626 23.7634 13.7418 23.7441 13.5291 23.6973C13.2905 23.644 13.0519 23.5601 12.8181 23.4875L13.1931 22.8484L13.5697 22.3852C14.1785 21.6977 14.8538 21.0731 15.5616 20.4889C15.3278 20.3243 15.1086 20.1274 14.8927 19.9386C14.5112 19.6078 14.1411 19.2672 13.7986 18.896C13.6346 18.7185 13.495 18.5168 13.3278 18.3441Z" fill="#FEE08D"/>
<path d="M15.0745 23.8843L16.8456 23.9101L16.8472 24.7558C16.8115 24.7041 16.7791 24.6525 16.7369 24.6041C16.8278 24.4507 16.7872 24.1651 16.7856 23.9876C16.5778 23.986 16.3034 23.9504 16.107 24.0198C15.9788 23.9391 15.8245 23.9698 15.6801 23.9617C15.568 23.9553 15.4658 23.9343 15.3586 23.923C15.2499 23.9117 15.1541 23.9246 15.0437 23.9004L15.0745 23.8843Z" fill="#010001"/>
<path d="M23.6555 15.5699L23.6766 15.5457C23.7578 15.7151 23.7042 15.9233 23.7578 16.104L23.7416 16.9481L24.3665 16.9352C24.4753 16.9675 24.6701 16.9529 24.7513 17.011L23.6718 17.0207C23.649 16.8448 23.6653 16.6511 23.6653 16.4736L23.6555 15.5699Z" fill="#010001"/>
<path d="M23.722 25.0029L23.7188 23.8764L25.7074 23.8667C25.6116 23.9183 25.5044 23.9103 25.3973 23.9135L24.847 23.928C24.7187 23.9296 24.5678 23.9151 24.4476 23.9603C24.2658 23.9135 23.9817 23.949 23.7886 23.9506L23.7934 24.4315C23.7934 24.4945 23.7837 24.58 23.8129 24.6365C23.7675 24.8027 23.7999 24.9819 23.748 25.1416L23.722 25.0029Z" fill="#010001"/>
<path d="M16.0224 21.0842C16.3877 21.378 16.7789 21.6475 17.2091 21.8395C17.201 21.9541 17.1084 22.1219 17.0711 22.2365C16.9786 22.5238 16.9218 22.8046 16.9006 23.1064L15.2529 23.1209C14.8455 23.1209 14.4202 23.0451 14.0176 22.9902C14.6328 22.3027 15.2919 21.6507 16.0224 21.0842Z" fill="#010001"/>
<path d="M15.9901 21.1989C16.0063 21.1956 16.0242 21.1843 16.0404 21.1892C16.0713 21.2005 16.1362 21.2634 16.1638 21.286L16.4576 21.4926C16.6719 21.6346 16.891 21.7669 17.1232 21.8799C16.9836 22.2608 16.8781 22.6223 16.8375 23.0274L15.3245 23.0435L14.1638 22.937L15.9901 21.1989Z" fill="#1B9E9B"/>
<path d="M26.9136 23.7858L26.4786 23.1209L23.7173 23.0951C23.6621 22.6852 23.6004 22.2301 23.3975 21.8621C23.7919 21.6265 24.2384 21.365 24.55 21.0261C24.9104 21.3311 25.2448 21.662 25.5776 21.9977C26.05 22.4738 26.5029 22.9595 26.8698 23.5244C26.9883 23.7067 27.1133 23.8988 27.1945 24.1005C27.1214 24.0715 27.0727 23.9504 27.0289 23.8891C26.9981 23.8439 26.9591 23.8149 26.9136 23.7858Z" fill="#010001"/>
<path d="M24.5581 21.1199C24.7789 21.2861 24.985 21.5072 25.1814 21.7025L26.4347 23.0387L25.3795 23.0194L23.7756 23.021C23.7432 22.6321 23.6441 22.2463 23.4932 21.8865C23.8649 21.6686 24.2448 21.4201 24.5581 21.1199Z" fill="#1B9E9B"/>
<path d="M23.7235 17.826C24.6375 17.8292 25.618 17.7614 26.5108 17.9873C26.4767 18.0922 26.3209 18.2343 26.243 18.3182L25.3826 19.2058L24.5482 19.9675C24.2138 19.6383 23.8161 19.3672 23.4021 19.1461C23.5742 18.7039 23.6683 18.2972 23.7235 17.826Z" fill="#010001"/>
<path d="M23.7837 17.9001C24.6441 17.8985 25.5532 17.8517 26.3973 18.0454L25.3502 19.1331L24.5548 19.8739C24.2512 19.5769 23.8762 19.3332 23.511 19.117C23.5321 18.983 23.5938 18.8491 23.6295 18.7184C23.7025 18.4456 23.7529 18.1793 23.7837 17.9001Z" fill="#1B9E9B"/>
<path d="M23.7755 27.3445C22.9346 27.0298 22.2626 26.3084 21.6619 25.6725C21.3827 25.3756 21.1002 25.0802 20.8438 24.7623C20.9119 24.6461 21.0207 24.538 21.1035 24.4315C21.3032 24.1765 21.4898 23.8973 21.6197 23.6003C22.0467 23.723 22.4671 23.8295 22.9103 23.8747L22.86 26.7232L23.5677 27.1654C23.5937 27.1799 23.6034 27.1686 23.6294 27.1605L23.6554 27.1702C23.6781 27.2703 23.7366 27.2654 23.7755 27.3445Z" fill="#010001"/>
<path d="M21.6619 23.6843C22.0483 23.8086 22.4395 23.8893 22.8437 23.9345L22.7869 26.6506L22.4509 26.3585L20.9314 24.7592C20.9541 24.7075 21.0061 24.6623 21.0434 24.6204L21.2252 24.3912C21.3924 24.1701 21.5418 23.9312 21.6619 23.6843Z" fill="#1B9E9B"/>
<path d="M17.0891 27.0815C17.1687 27.1009 17.2661 27.0186 17.3375 26.9766L17.7774 26.6781C17.5859 25.7759 17.5956 24.7899 17.6362 23.8732C17.9105 23.8571 18.1979 23.8215 18.4641 23.7505L18.9544 23.594C19.1638 24.0362 19.4203 24.3945 19.7401 24.764L18.8781 25.7017C18.3829 26.2214 17.8927 26.7652 17.2563 27.1138C17.1459 27.1751 17.0291 27.2429 16.9089 27.2849L16.9154 27.251C16.969 27.2155 17.0388 27.1751 17.0632 27.1122L17.068 27.0896L17.0891 27.0815Z" fill="#010001"/>
<path d="M18.8374 23.702C18.8894 23.6891 18.8634 23.6923 18.9154 23.6955C19.1248 24.0909 19.3601 24.4266 19.6459 24.7703L18.1913 26.3019L17.8472 26.6214C17.7628 26.318 17.7449 25.9646 17.7271 25.6499L17.6995 23.9408C18.0842 23.9053 18.4722 23.8375 18.8374 23.702Z" fill="#1B9E9B"/>
<path d="M12.7449 12.9989C13.0484 12.9699 13.3715 12.9909 13.6783 12.9925C14.1588 12.9941 14.6296 12.9957 15.1068 13.0651C16.0744 13.2071 17.1149 13.6751 17.8714 14.2932L19.7594 16.1266C19.4282 16.53 19.1474 16.9271 18.9185 17.3967C18.5143 17.2046 18.1117 17.0981 17.675 17.0078C17.6734 16.1153 17.6912 15.2503 17.8503 14.3691L17.188 13.914L17.1588 13.9188L17.1393 13.9091C17.0971 13.8672 17.0841 13.8317 17.0256 13.7994C16.5516 13.5315 16.0387 13.333 15.5111 13.199C15.365 13.1619 15.2042 13.1119 15.0549 13.0958C14.5095 13.0377 13.9656 13.0538 13.4186 13.0554L13.0046 13.0393C12.9381 13.0328 12.8374 13.0118 12.7741 13.0328L12.753 13.0441L12.7449 12.9989Z" fill="#010001"/>
<path d="M17.9087 14.4062L19.6668 16.1379C19.4541 16.3606 19.2804 16.6253 19.1116 16.8819L18.8843 17.3015C18.5337 17.1288 18.1441 17.0013 17.7561 16.9432L17.9087 14.4062Z" fill="#1B9E9B"/>
<path d="M13.4656 17.1367C13.537 17.1529 13.5484 17.1738 13.6003 17.2255C13.675 17.4546 13.8568 17.7048 14.0078 17.8936C14.5321 17.8549 15.0435 17.8097 15.5711 17.8242C16.0045 17.8371 16.4542 17.9033 16.886 17.8888L16.9087 17.8872C16.9428 18.0453 16.946 18.2115 16.9753 18.3713C17.024 18.6328 17.1132 18.8861 17.2042 19.1363C17.1603 19.1718 17.097 19.1912 17.0451 19.2154C16.9525 19.2573 16.8649 19.3074 16.7772 19.3574C16.5094 19.5123 16.2675 19.7011 16.0305 19.8996C15.4039 19.4139 14.8195 18.9055 14.2886 18.3148C13.9526 17.9469 13.6636 17.5983 13.4656 17.1367Z" fill="#010001"/>
<path d="M14.7253 17.9083C14.8958 17.8905 15.0792 17.8986 15.2513 17.897L16.8584 17.9647C16.8811 18.365 16.9915 18.7297 17.1182 19.1057C16.8227 19.2365 16.5776 19.3865 16.3178 19.577L16.0289 19.8061C15.9331 19.7593 15.8325 19.6593 15.7481 19.5915C15.136 19.0993 14.6003 18.5441 14.0728 17.9663L14.7253 17.9083Z" fill="#1B9E9B"/>
<path d="M25.709 23.8651C25.7739 23.8328 25.9931 23.849 26.0775 23.8458C26.3583 23.8345 26.6343 23.8232 26.9135 23.7844C26.959 23.8151 26.9979 23.8441 27.0304 23.8877C27.0742 23.949 27.1229 24.0701 27.196 24.0991C27.3486 24.3719 27.4525 24.7108 27.5353 25.011C27.7755 25.8808 27.8518 26.7475 27.7966 27.6448L27.7593 27.8933C26.7479 28.0563 25.6668 27.9821 24.6879 27.6867C24.4087 27.6383 24.0223 27.485 23.7756 27.3414C23.7366 27.2623 23.6782 27.2671 23.6571 27.1671L23.6311 27.1574L23.7253 25.0013L23.7512 25.1385C23.8032 24.9803 23.7707 24.7995 23.8162 24.6333C23.7886 24.5768 23.7983 24.4913 23.7967 24.4284L23.7918 23.9474C23.985 23.9458 24.2691 23.9119 24.4509 23.9571C24.571 23.9103 24.722 23.9264 24.8502 23.9248L25.4006 23.9103C25.5061 23.9103 25.6116 23.9184 25.709 23.8651Z" fill="#DE9551"/>
<path d="M23.8129 24.6349C23.7853 24.5784 23.7951 24.4929 23.7934 24.4299L23.7886 23.949C23.9818 23.9474 24.2658 23.9135 24.4477 23.9587C25.4606 24.906 26.519 25.8663 27.282 27.0315C27.4476 27.2832 27.6083 27.535 27.722 27.8142C26.1441 27.1816 24.8957 25.905 23.8129 24.6349Z" fill="#1B9E9B"/>
<path d="M13.0711 25.0271L13.1004 25.0335C13.1166 24.9528 13.1572 24.8738 13.1815 24.7931L13.5338 23.7634C13.7026 23.7731 13.8585 23.8022 14.0289 23.8054C14.0695 23.8054 14.1003 23.8102 14.1409 23.8038L14.175 23.7973L15.0727 23.8796L15.0744 23.8829L15.0435 23.899C15.1555 23.9248 15.2497 23.9103 15.3584 23.9216C15.4672 23.9329 15.5695 23.9555 15.6799 23.9603C15.8243 23.9684 15.9769 23.9377 16.1068 24.0184C16.3032 23.949 16.576 23.9845 16.7854 23.9861C16.787 24.1637 16.8276 24.4493 16.7367 24.6026C16.7772 24.6494 16.8113 24.7027 16.8471 24.7543C16.8698 25.2062 16.8941 25.6581 16.9526 26.1067L17.0337 26.6877C17.0548 26.8136 17.0873 26.9524 17.0889 27.0799L17.0678 27.0896L17.063 27.1122C17.0402 27.1751 16.9688 27.2155 16.9152 27.251L16.9087 27.2849L16.9055 27.2913C16.5045 27.5124 16.0175 27.648 15.5711 27.7416C14.6458 27.9352 13.6945 27.995 12.7513 28.0143C12.7432 27.1961 12.7919 26.3537 12.9478 25.55C12.9819 25.3773 13.0078 25.1901 13.0711 25.0271Z" fill="#DE9551"/>
<path d="M16.1069 24.0198C16.3033 23.9504 16.576 23.9859 16.7854 23.9876C16.7871 24.1651 16.8276 24.4507 16.7367 24.604C16.714 24.6073 16.6263 24.7574 16.6069 24.7848C16.3796 25.1173 16.1036 25.4174 15.8195 25.7047C15.2903 26.2405 14.7157 26.7101 14.0923 27.1313C13.7157 27.3863 13.3309 27.6316 12.917 27.8253C13.0128 27.5687 13.1572 27.3202 13.2952 27.0829C13.7709 26.2695 14.3634 25.5982 15.029 24.9349C15.3699 24.5976 15.6945 24.2684 16.1069 24.0198Z" fill="#1B9E9B"/>
<path d="M12.7449 12.999L12.753 13.0426L12.7741 13.0329C12.8374 13.0119 12.9381 13.0313 13.0046 13.0361L13.4186 13.0523C13.9657 13.0507 14.5095 13.0329 15.0549 13.0926C15.2043 13.1088 15.365 13.1588 15.5111 13.1959C16.0387 13.3299 16.5517 13.5284 17.0257 13.7963C17.0841 13.8285 17.0971 13.8641 17.1393 13.906L17.1588 13.9157C17.0598 14.4063 16.9851 14.9098 16.9494 15.4101C16.9202 15.7991 16.9267 16.1864 16.8698 16.5705C16.8455 16.7286 16.9202 17.0321 16.8293 17.1563C16.7091 17.2241 16.5647 17.2225 16.4348 17.1854C16.3471 17.1612 16.2627 17.1144 16.1734 17.0982C15.99 17.0627 15.7871 17.0659 15.6004 17.0611C14.9267 17.0417 14.2579 17.0869 13.5988 17.2257C13.5485 17.1741 13.5371 17.1531 13.4641 17.137C13.4251 17.1144 13.3439 16.8949 13.3228 16.8448C13.0956 16.3155 12.9235 15.7168 12.8423 15.1471C12.7676 14.6193 12.7579 14.0884 12.7449 13.5558C12.7433 13.4138 12.6962 13.1233 12.7449 12.999Z" fill="#DE9551"/>
<path d="M12.9089 13.1716C13.1784 13.2652 13.4333 13.4492 13.6703 13.6058C14.6849 14.2755 15.6394 15.0582 16.5063 15.9087C16.5972 15.9975 16.7806 16.1557 16.831 16.2686C16.8504 16.3138 16.8066 16.4817 16.7969 16.5333C16.7644 16.7076 16.7839 16.9061 16.7839 17.082L16.7433 17.124C16.6556 17.1272 16.5517 17.1401 16.4673 17.1159C16.279 17.061 16.1459 16.9287 16.0095 16.7964L15.5826 16.3768C14.891 15.6941 14.2141 15.0001 13.6183 14.2303C13.3635 13.8979 13.12 13.5347 12.9089 13.1716Z" fill="#1B9E9B"/>
<path d="M20.266 16.7947C20.7319 17.2595 21.1312 17.8889 21.2189 18.5457C21.4689 18.3456 21.7351 18.2003 22.037 18.0906C22.2546 18.0115 22.4802 17.9728 22.701 17.9131C22.7708 17.8937 22.8373 17.8873 22.9088 17.8792C22.8422 18.2294 22.761 18.557 22.6425 18.8943C22.5533 19.1461 22.4039 19.3656 22.2546 19.5834C22.3211 19.5818 22.3893 19.5786 22.4559 19.5899L22.4948 19.5963C22.5468 19.606 22.5938 19.6254 22.6442 19.6431C22.7708 19.6867 22.9039 19.7529 23.0192 19.8239L23.7107 20.2935C23.7935 20.3548 23.8665 20.4275 23.9396 20.4985C23.576 20.8971 23.0305 21.2344 22.5143 21.3909C22.4429 21.4119 22.3438 21.3974 22.287 21.4361C22.5386 21.767 22.6977 22.2027 22.7968 22.6013C22.8308 22.7353 22.8455 22.8789 22.8877 23.008L22.8958 23.0322L22.8617 23.0661C22.7773 23.0355 22.6653 23.0322 22.5744 23.0177C22.3065 22.979 22.0062 22.9112 21.7594 22.7982C21.5598 22.7078 21.3877 22.59 21.2026 22.4771C21.1669 23.0742 20.7465 23.5987 20.3796 24.0409C20.3471 24.0748 20.3163 24.1071 20.2757 24.1313C20.1686 24.0038 20.0517 23.886 19.951 23.752C19.7725 23.5115 19.641 23.2711 19.5127 23.0032C19.4348 22.8402 19.3926 22.6675 19.3325 22.498C19.266 22.5513 19.1978 22.5933 19.1264 22.6368C19.003 22.7095 18.8796 22.7611 18.7497 22.8176C18.4721 22.937 18.1897 22.9709 17.8975 23.0338C17.8342 23.0468 17.7741 23.0564 17.7092 23.0629C17.8407 22.4916 17.9511 21.9509 18.3001 21.462C18.2481 21.4184 18.1426 21.4151 18.0761 21.3942C18.0062 21.3732 17.9381 21.3409 17.8683 21.3183C17.3975 21.1618 16.9592 20.8229 16.6021 20.4888C16.852 20.2693 17.1118 20.0789 17.3926 19.8997C17.5826 19.7787 17.8228 19.6577 18.0403 19.606L18.3163 19.5447C18.1751 19.3236 18.0761 19.1219 17.9657 18.8862C17.8748 18.6926 17.8358 18.4634 17.7871 18.2568C17.7741 18.2052 17.7076 17.9357 17.7222 17.9099L17.8358 17.926C18.3228 17.9873 18.9721 18.2342 19.3455 18.5506C19.3682 18.2923 19.4624 18.0051 19.5971 17.7824C19.7026 17.6081 19.7952 17.4289 19.9121 17.2627L20.266 16.7947Z" fill="#EC6110"/>
<path d="M19.4233 18.7862L19.4168 18.7814L19.4087 18.7072C19.4477 18.6878 19.4769 18.6491 19.5077 18.6184L19.558 18.6281L19.5678 18.6571C19.6343 18.7136 19.7252 18.8072 19.8048 18.8347C19.8454 18.7814 19.8486 18.7572 19.8519 18.6926C19.9103 18.7039 19.9249 18.6991 19.9639 18.7459L19.9623 18.7685C19.9623 18.804 19.9606 18.7862 19.9736 18.8137C19.9947 18.8556 19.985 18.9218 19.9834 18.9686C19.9363 18.9815 19.8957 18.9961 19.8535 19.0235L19.834 19.0364L19.8048 19.0219V18.9928C19.7804 18.9638 19.7545 18.9492 19.7155 18.9444H19.6863L19.6473 18.896L19.6278 18.9041C19.5921 18.8895 19.5613 18.8766 19.5288 18.8556L19.4233 18.7862Z" fill="#FB7E0D"/>
<path d="M22.2383 20.0645C22.5078 20.1597 22.7594 20.3081 22.9607 20.5115L22.6913 20.71C22.5581 20.8004 22.3715 20.894 22.2124 20.9101C22.128 20.8552 22.0939 20.8149 22.0452 20.7294L22.0825 20.7019C22.1361 20.6842 22.1734 20.6729 22.214 20.6325V20.6083C22.2383 20.5728 22.2562 20.5599 22.2935 20.5389H22.3228V20.4889L22.2237 20.4001V20.3711C22.188 20.3324 22.1685 20.3162 22.1182 20.2985L22.1052 20.2533C22.1669 20.1952 22.2091 20.1468 22.2383 20.0645Z" fill="#FEBA48"/>
<path d="M20.3161 22.4238C20.3388 22.3932 20.3275 22.4045 20.3583 22.3786L20.3811 22.3609V22.3108C20.4022 22.2866 20.4265 22.2624 20.4557 22.2511C20.4979 22.235 20.4492 22.2673 20.4979 22.2302L20.519 22.2124C20.5694 22.2205 20.6132 22.2172 20.6651 22.214C20.7025 22.256 20.7009 22.2608 20.6992 22.3173C20.6992 22.3464 20.6846 22.3544 20.6798 22.3786C20.6716 22.4206 20.6749 22.4351 20.6586 22.4771C20.6424 22.5142 20.6343 22.5562 20.6197 22.5949L20.6116 22.6207C20.5726 22.7369 20.4898 22.8757 20.4233 22.979L20.4054 23.008C20.3713 23.0597 20.334 23.1129 20.2723 23.1291C20.2301 23.0936 20.2122 23.0742 20.183 23.029C20.1587 22.9919 20.1278 22.958 20.1018 22.9209L20.0824 22.8918C20.0499 22.8402 20.0272 22.7886 20.0028 22.7337L19.9882 22.6998C19.9606 22.6385 19.9314 22.5707 19.9135 22.5077C19.9022 22.4674 19.8876 22.4351 19.8665 22.398C19.8876 22.3415 19.9038 22.2979 19.9444 22.2511L19.9687 22.2899C20.0272 22.2866 20.0369 22.2866 20.0889 22.3141C20.1018 22.3528 20.1083 22.377 20.1035 22.419C20.144 22.4787 20.1538 22.4948 20.222 22.5158C20.269 22.5029 20.2918 22.4658 20.3161 22.4238Z" fill="#FEBA48"/>
<path d="M18.5257 20.944C18.5046 20.9537 18.4819 20.9585 18.4592 20.9634C18.43 20.9537 18.404 20.944 18.3732 20.9392C18.3098 20.9279 18.24 20.9004 18.1832 20.8714L18.0339 20.7955L17.9738 20.7665L17.7254 20.6083L17.6865 20.589C17.6394 20.5551 17.6183 20.5244 17.6069 20.4712L17.6962 20.4018L17.7855 20.3308L17.8147 20.3114L17.9024 20.2581L18.1637 20.1322C18.253 20.1 18.3439 20.0709 18.4381 20.0564L18.5193 20.129L18.5663 20.1548L18.5712 20.1726C18.5793 20.2033 18.5761 20.192 18.5972 20.2242C18.5972 20.2969 18.555 20.3324 18.5063 20.384C18.4835 20.4082 18.4884 20.4001 18.4527 20.4179L18.4267 20.3824C18.4008 20.3716 18.3742 20.3706 18.3472 20.3792C18.2709 20.3937 18.2709 20.405 18.2222 20.4615C18.2206 20.5228 18.2254 20.568 18.2806 20.6067C18.3147 20.6309 18.3699 20.6438 18.4089 20.6568L18.4397 20.668C18.4657 20.6777 18.49 20.6826 18.5176 20.6874L18.568 20.6487C18.6053 20.6664 18.6345 20.6826 18.667 20.7084H18.8163L18.8066 20.7584L18.7806 20.7665C18.7287 20.7842 18.7644 20.7713 18.7173 20.7939C18.68 20.8117 18.6572 20.8101 18.6183 20.8085C18.5907 20.8262 18.5663 20.8456 18.5404 20.8666L18.5257 20.944Z" fill="#FEBA48"/>
<path d="M20.9981 21.5862L21.0111 21.612L21.0452 21.6927C21.0663 21.7443 21.0939 21.7831 21.1247 21.8299C21.1588 21.8799 21.1669 21.9122 21.1702 21.9719C21.2027 21.9913 21.2303 22.0074 21.2579 22.0316L21.2627 22.08L21.2124 22.1284C21.1702 22.1188 21.1637 22.1171 21.1329 22.0881C21.0906 22.151 21.1556 22.1801 21.0825 22.2107L21.0322 22.235L21.0079 22.2253C20.977 22.214 20.99 22.2156 20.9624 22.2156L20.9543 22.2414C20.9445 22.2737 20.9316 22.2947 20.9121 22.3237C20.8601 22.306 20.7871 22.2624 20.7562 22.2172L20.7481 22.193L20.6864 22.1688L20.6491 22.1994L20.6621 22.2188C20.6118 22.2204 20.5663 22.2237 20.516 22.2172L20.4949 22.235C20.4462 22.2721 20.4949 22.2398 20.4527 22.2559C20.4218 22.2672 20.3975 22.2914 20.378 22.3156V22.3657L20.3553 22.3834C20.3244 22.4092 20.3358 22.398 20.3131 22.4286C20.2887 22.4706 20.266 22.5077 20.2189 22.5222C20.1491 22.5012 20.141 22.4851 20.1004 22.4254C20.1053 22.3834 20.1004 22.3592 20.0858 22.3205C20.0338 22.2931 20.0241 22.2931 19.9657 22.2963L19.9413 22.2575C19.9024 22.3043 19.8845 22.3479 19.8634 22.4044L19.8618 22.222C19.9024 22.2091 19.93 22.1978 19.964 22.1704L20.0533 22.1026L20.0988 22.0397L20.0874 21.9816C20.0825 21.9493 20.0793 21.9412 20.0598 21.9122L20.0387 21.8831L20.0192 21.8541C19.9559 21.8557 19.9478 21.8734 19.9007 21.9122L19.8813 21.8928L19.852 21.9025L19.8423 21.9509C19.8082 21.9848 19.8001 21.9993 19.753 22.0106L19.6946 21.9509C19.7027 21.909 19.7043 21.8831 19.6929 21.8428L19.654 21.8331C19.6264 21.8557 19.6102 21.8654 19.5744 21.8718L19.5647 21.8525C19.5858 21.8041 19.5988 21.7992 19.6426 21.7669C19.654 21.7347 19.6653 21.7072 19.6832 21.6782C19.7157 21.7137 19.74 21.7072 19.7855 21.7137C19.8537 21.7185 19.9413 21.7605 20.0111 21.7766C20.3244 21.8428 20.74 21.7605 20.9981 21.5862Z" fill="#FC8808"/>
<path d="M20.6523 22.1978L20.5792 22.2027C20.5224 22.1268 20.563 22.0735 20.5256 21.9977C20.5305 21.9541 20.5354 21.9477 20.5597 21.9138L20.5987 21.9186L20.6782 21.9283L20.688 21.8799C20.7237 21.8799 20.761 21.9009 20.7854 21.9267C20.8113 21.9525 20.7886 21.9977 20.8162 22.038C20.8097 22.0655 20.8081 22.0752 20.7919 22.0978L20.7967 22.1478L20.7513 22.1946L20.6896 22.1704L20.6523 22.1978Z" fill="#FB7E0D"/>
<path d="M21.5175 20.8196L21.537 20.8309C21.576 20.8551 21.6003 20.889 21.6279 20.9245L21.774 20.9697C21.7854 21.031 21.7805 21.0455 21.8373 21.081L21.8974 21.1101C21.9574 21.144 22.011 21.1972 22.0419 21.2585C22.0013 21.2908 21.9997 21.3005 21.9461 21.3054L21.9169 21.3086L21.8876 21.3473L21.9266 21.407C21.912 21.4651 21.8698 21.4926 21.8276 21.5345L21.7984 21.5248L21.7497 21.5152L21.7302 21.5345C21.7724 21.5668 21.8227 21.5926 21.8389 21.6426C21.873 21.7411 21.9039 21.8412 21.9234 21.9428L21.9591 22.0768C21.9656 22.1091 21.9737 22.1171 21.9591 22.1462L21.7107 22.0671L21.6214 22.0348L21.5727 22.0477C21.5435 22.038 21.5159 22.0284 21.4867 22.0219L21.4607 22.0171C21.4185 22.0058 21.4234 21.9912 21.4039 21.9541C21.3617 21.9686 21.3292 21.9832 21.2919 22.009C21.2708 22.0558 21.2789 22.0316 21.2627 22.08L21.2578 22.0316C21.2302 22.0074 21.201 21.9912 21.1701 21.9719C21.1653 21.9122 21.1571 21.8799 21.1247 21.8299C21.0938 21.7847 21.0662 21.7443 21.0451 21.6927L21.011 21.612L20.998 21.5862C21.1653 21.4571 21.3357 21.2747 21.4234 21.0826L21.438 21.0504C21.4704 20.9745 21.4948 20.8987 21.5175 20.8196Z" fill="#FB7E0D"/>
<path d="M21.4055 21.9543L21.412 21.83C21.3211 21.7397 21.313 21.7445 21.313 21.6202L21.3244 21.6057L21.3503 21.6186C21.3763 21.6315 21.3942 21.638 21.4218 21.6428L21.4656 21.7332C21.4883 21.7768 21.5175 21.8139 21.5403 21.8591L21.5857 21.9478C21.6003 21.9769 21.6084 22.0043 21.6182 22.0334L21.5695 22.0463C21.5403 22.0366 21.5127 22.0269 21.4834 22.0205L21.4607 22.0172C21.4185 22.0059 21.4234 21.9914 21.4055 21.9543Z" fill="#FC8808"/>
<path d="M19.0678 20.8906C19.1701 21.2473 19.4185 21.5055 19.7399 21.683L19.7902 21.7105C19.7448 21.704 19.7204 21.7105 19.688 21.675C19.6701 21.704 19.6587 21.7331 19.6474 21.7637C19.6036 21.7944 19.5889 21.7992 19.5695 21.8493L19.5792 21.8686C19.6149 21.8622 19.6312 21.8525 19.6587 21.8299L19.6977 21.8396C19.7074 21.8799 19.7058 21.9057 19.6993 21.9477L19.7578 22.0074C19.8048 21.9961 19.813 21.9816 19.8471 21.9477L19.8568 21.8993L19.886 21.8896L19.9055 21.909C19.9526 21.8702 19.9607 21.8525 20.024 21.8509L20.0435 21.8799L20.0646 21.909C20.0841 21.938 20.0873 21.9461 20.0922 21.9784L20.1035 22.0365L20.0581 22.0994L19.9688 22.1672C19.9347 22.193 19.9071 22.2059 19.8665 22.2188C19.8227 22.2221 19.8048 22.2269 19.7675 22.2463L19.6961 22.2802C19.6717 22.3011 19.6474 22.3205 19.6182 22.3334C19.5597 22.3592 19.6165 22.3237 19.5565 22.3641L19.5289 22.3834C19.4834 22.3851 19.4607 22.3834 19.4201 22.3641L19.4104 22.335L19.4396 22.2947C19.4656 22.243 19.4964 22.2172 19.5386 22.1769L19.5484 22.1688L19.5467 22.1478H19.4299C19.3763 22.1381 19.3617 22.122 19.3308 22.0784L19.3113 22.0494C19.2026 22.0704 19.1101 22.0316 18.9964 22.0332L18.9948 22.0381C18.964 22.0591 18.9575 22.0623 18.925 22.0687L18.8958 22.0494C18.8503 22.0574 18.8081 22.0687 18.7675 22.0881C18.7091 22.1155 18.6636 22.1365 18.5987 22.1478V22.0881C18.6052 22.0526 18.6166 22.0558 18.6182 22.0106C18.6182 21.9816 18.6182 21.9687 18.6279 21.938C18.6425 21.8961 18.636 21.9251 18.6425 21.8864L18.6636 21.7944L18.6815 21.7089L18.6864 21.6846C18.6945 21.6443 18.7123 21.6185 18.7351 21.5846L18.761 21.491C18.7643 21.4732 18.7675 21.4458 18.7756 21.428L18.7951 21.399L18.7756 21.3796L18.7156 21.3812L18.6766 21.399C18.623 21.4119 18.4818 21.4087 18.438 21.3796C18.4688 21.3328 18.4932 21.2925 18.5468 21.2715L18.576 21.2618C18.6231 21.2424 18.6588 21.2328 18.7091 21.2247C18.6782 21.2086 18.6506 21.194 18.6166 21.186L18.5955 21.1827C18.5825 21.1166 18.5743 21.0585 18.576 20.9923L18.5987 21.0133L18.6149 21.0746C18.6555 21.1601 18.6166 21.0488 18.6458 21.1359L18.6539 21.1634H18.7529C18.7529 21.1295 18.7562 21.1069 18.7627 21.0746C18.8162 21.0569 18.8617 20.9971 18.9006 20.9568C18.9315 20.952 18.9412 20.9471 18.9672 20.9261C19.0062 20.8955 19.0256 20.8987 19.0678 20.8906Z" fill="#FB7E0D"/>
<path d="M18.735 21.5813C18.7545 21.62 18.7626 21.6426 18.8032 21.6652L18.9054 21.6523C18.9477 21.6329 18.9379 21.6329 18.985 21.6329C19.0337 21.6007 19.0954 21.6136 19.1538 21.6136L19.1327 21.6927L19.0824 21.712L19.0921 21.7621L19.1214 21.7717C19.1246 21.8153 19.1311 21.8298 19.1116 21.8702L18.9996 21.8895L19.0126 21.9493L18.9931 21.9783L18.9753 22.0074L18.9964 22.0316L18.9947 22.0364C18.9639 22.0574 18.9574 22.0606 18.9249 22.0671L18.8957 22.0477C18.8503 22.0558 18.808 22.0671 18.7675 22.0864C18.709 22.1139 18.6636 22.1349 18.5986 22.1461V22.0864C18.6051 22.0509 18.6165 22.0542 18.6181 22.009C18.6181 21.9799 18.6181 21.967 18.6279 21.9363C18.6425 21.8944 18.636 21.9234 18.6425 21.8847L18.6636 21.7927L18.6814 21.7072L18.6863 21.683C18.6944 21.641 18.7123 21.6168 18.735 21.5813Z" fill="#FC8808"/>
<path d="M19.8536 18.6943C19.8601 18.6411 19.8682 18.6007 19.8844 18.5507L19.9136 18.4522L19.9217 18.4264C19.998 18.2069 20.1393 18.0294 20.3049 17.8696C20.412 17.9939 20.4834 18.1182 20.5565 18.265C20.623 18.399 20.6458 18.5265 20.6798 18.6685L20.688 18.7088C20.6977 18.7782 20.6928 18.8218 20.7383 18.8783L20.7659 18.7395C20.8065 18.733 20.8308 18.725 20.8649 18.7024C20.9055 18.6749 20.9022 18.6798 20.9477 18.6798C20.9785 18.7104 20.9769 18.7088 20.9818 18.7524L21.0175 18.7379L21.0256 18.7201C21.0402 18.6911 21.0354 18.7008 21.0678 18.6798C21.1068 18.6927 21.0906 18.6798 21.11 18.7072C21.1295 18.7347 21.1522 18.7556 21.1782 18.7782C21.1652 18.8153 21.175 18.7992 21.1539 18.825C21.1344 18.8509 21.123 18.8767 21.1084 18.9057L21.0581 18.988C21.0386 19.0203 21.0272 19.051 21.0143 19.0865C21.063 19.0429 21.1214 18.9993 21.1571 18.9461L21.1863 18.9364C21.2334 18.9186 21.235 18.917 21.2854 18.9267L21.3146 18.9751C21.3941 18.9751 21.4785 18.9864 21.5516 18.9558L21.7009 18.9057C21.735 18.8944 21.7675 18.888 21.8032 18.8815L21.9866 18.8379L21.9623 18.9267L21.9379 19.0042L21.9087 19.0929C21.8925 19.1397 21.886 19.1833 21.8681 19.2301C21.86 19.2527 21.8519 19.2995 21.8389 19.3189C21.8227 19.3415 21.7837 19.3495 21.787 19.3802C21.8292 19.427 21.8568 19.4673 21.8828 19.5254C21.8957 19.5545 21.8892 19.5416 21.9103 19.5755C21.9477 19.5948 21.9623 19.5948 21.985 19.632L22.0467 19.7143C22.0353 19.7562 22.0353 19.7578 21.9964 19.7837L21.9136 19.8289C21.9542 19.8531 21.9574 19.8595 22.0061 19.8611L21.9866 19.9015L22.0451 19.9596C22.0305 20.0015 22.0418 19.9806 22.0142 20.0225C22.0662 20.0354 22.0597 20.0257 22.1051 20.0193C22.1441 20.0128 22.2042 20.0499 22.2383 20.0677C22.209 20.15 22.1668 20.1984 22.1051 20.2581L22.1181 20.3033C22.1685 20.3195 22.1879 20.3372 22.2237 20.3759V20.405L22.3227 20.4938V20.5438H22.2935C22.2561 20.5632 22.2383 20.5777 22.2139 20.6132V20.6374C22.1717 20.6777 22.136 20.6874 22.0824 20.7068L22.0451 20.7342C22.0954 20.8198 22.1279 20.8601 22.2123 20.915C22.1068 20.9198 22.0337 20.944 21.9477 20.8795L21.9769 20.8601C21.9574 20.8391 21.8876 20.8456 21.8568 20.844L21.8616 20.8649L21.8892 20.8795L21.9136 20.894L21.8292 20.8892L21.7772 20.9747L21.6311 20.9295C21.6035 20.894 21.5792 20.8601 21.5402 20.8359L21.5207 20.8246C21.5467 20.7245 21.5483 20.6245 21.5532 20.5228C21.5435 20.2904 21.4802 20.1 21.3795 19.8934C21.2545 19.6965 21.1165 19.569 20.9266 19.4367L20.6977 19.3221C20.4639 19.2107 20.1945 19.222 19.9493 19.2898C19.7367 19.3479 19.5971 19.4238 19.4282 19.5626C19.1653 19.8595 18.9964 20.1839 19.0175 20.589C19.0224 20.689 19.0419 20.7939 19.0679 20.8924C19.0257 20.9005 19.0062 20.8972 18.9721 20.9247C18.9461 20.9456 18.9364 20.9505 18.9055 20.9553C18.8649 20.9957 18.8211 21.0554 18.7675 21.0731C18.761 21.1054 18.7578 21.128 18.7578 21.1619H18.6588L18.6507 21.1345C18.6214 21.0489 18.6604 21.1587 18.6198 21.0731L18.6036 21.0118L18.5809 20.9908L18.5289 20.9456L18.5435 20.8666C18.5695 20.8456 18.5922 20.8262 18.6214 20.8085C18.662 20.8101 18.6847 20.8117 18.7205 20.7939C18.7675 20.7697 18.7318 20.7826 18.7838 20.7665L18.8097 20.7584L18.8195 20.7084H18.6701C18.6377 20.6826 18.6085 20.6664 18.5711 20.6487L18.5208 20.6874C18.4932 20.6826 18.4688 20.6777 18.4429 20.6681L18.412 20.6568C18.3714 20.6422 18.3179 20.6309 18.2838 20.6067C18.2286 20.568 18.2253 20.5228 18.2253 20.4615C18.274 20.405 18.274 20.3953 18.3503 20.3792C18.3909 20.3679 18.3909 20.3663 18.4299 20.3824L18.4559 20.4179C18.4932 20.4002 18.4867 20.4082 18.5094 20.384C18.5598 20.3324 18.6003 20.2969 18.6003 20.2242C18.5792 20.1936 18.5825 20.2033 18.5744 20.1726L18.5695 20.1549L18.5224 20.129L18.5322 20.079L18.4997 20.037L18.5094 20.008L18.589 19.9676C18.6296 19.9531 18.6425 19.9483 18.6783 19.9192C18.6409 19.8821 18.6085 19.8482 18.5825 19.8014L18.5711 19.7788C18.5257 19.7304 18.4948 19.7094 18.4818 19.6433L18.5322 19.6336C18.5662 19.6271 18.5744 19.6223 18.6052 19.6029L18.6344 19.5835C18.6555 19.5626 18.649 19.5706 18.6636 19.548C18.6831 19.519 18.701 19.4851 18.7302 19.4641L18.7594 19.4448C18.7188 19.406 18.6848 19.377 18.6685 19.3205L18.6604 19.2866C18.6458 19.2446 18.649 19.2301 18.6409 19.1881C18.6312 19.1381 18.6296 19.051 18.6101 19.0106C18.5971 18.98 18.6003 18.9558 18.6003 18.9235C18.6409 18.909 18.6214 18.9186 18.6604 18.8944C18.6328 18.8718 18.6052 18.8509 18.5809 18.825L18.6003 18.8153C18.6425 18.8234 18.6929 18.8331 18.7286 18.8541C18.7562 18.8702 18.7594 18.8831 18.7935 18.8896L18.8179 18.8944C18.8779 18.9138 18.9315 18.9041 18.9899 18.9235C19.0159 18.9315 19.0386 18.9396 19.0662 18.9428C19.1003 18.9477 19.1231 18.9509 19.1555 18.9671L19.1847 18.9832L19.2448 19.0122L19.274 19.0316L19.3211 19.0219L19.3227 18.9929H19.3536L19.3633 18.9671L19.3925 18.9719L19.4299 18.9332L19.4266 18.7847L19.5321 18.8541C19.5646 18.8751 19.5955 18.888 19.6312 18.9025L19.6506 18.8944L19.6896 18.9428H19.7188C19.7578 18.9477 19.7838 18.9622 19.8081 18.9913V19.0203L19.8373 19.0348L19.8568 19.0219C19.8974 18.9945 19.9396 18.9783 19.9867 18.9671C19.9883 18.9202 19.998 18.8541 19.9769 18.8121C19.964 18.7863 19.9656 18.8024 19.9656 18.7669L19.9672 18.7443C19.9266 18.6992 19.9104 18.7056 19.8536 18.6943Z" fill="#FC8808"/>
<path d="M18.6311 19.5835L18.6376 19.6626C18.6782 19.69 18.6895 19.6819 18.7366 19.6819L18.7658 19.6626L18.8048 19.6723V19.6916C18.7772 19.711 18.7772 19.7191 18.7431 19.7207C18.709 19.7207 18.7058 19.7287 18.6766 19.7417L18.5678 19.7788C18.5223 19.7304 18.4915 19.7094 18.4785 19.6432L18.5288 19.6335C18.5629 19.6271 18.571 19.6222 18.6019 19.6029L18.6311 19.5835Z" fill="#FB7E0D"/>
<path d="M21.7317 19.6754C21.7966 19.6447 21.8518 19.6157 21.9103 19.5737C21.9476 19.5931 21.9622 19.5931 21.9849 19.6302L22.0466 19.7125C22.0353 19.7545 22.0353 19.7561 21.9963 19.7819L21.9135 19.8271C21.8956 19.7819 21.8762 19.7464 21.8469 19.7077C21.8031 19.7012 21.7723 19.6899 21.7317 19.6754Z" fill="#FB7E0D"/>
<path d="M20.9786 18.7506L21.0143 18.7361L21.0225 18.7183C21.0371 18.6893 21.0322 18.699 21.0647 18.678C21.1036 18.6909 21.0874 18.678 21.1069 18.7054C21.1264 18.7329 21.1491 18.7538 21.1751 18.7764C21.1621 18.8135 21.1718 18.7974 21.1507 18.8232C21.1312 18.849 21.1199 18.8749 21.1053 18.9039L21.0549 18.9862C21.0354 19.0185 21.0241 19.0492 21.0111 19.0847C20.9803 19.1266 20.9527 19.1525 20.9104 19.1831C20.7757 19.1589 20.8812 19.1169 20.8049 19.0395C20.813 19.004 20.8179 18.9814 20.839 18.9507L20.9088 18.8442C20.9267 18.8006 20.9445 18.7845 20.9786 18.7506Z" fill="#FB7E0D"/>
<path d="M21.4703 19.0912C21.5385 19.0718 21.5612 19.0686 21.6294 19.0912C21.6813 19.1558 21.6878 19.1638 21.6878 19.2494C21.6148 19.3123 21.5385 19.3204 21.4606 19.3672C21.4167 19.393 21.4021 19.3865 21.3518 19.3865C21.3064 19.2397 21.2171 19.3236 21.1343 19.2687C21.2057 19.1977 21.2771 19.2542 21.3664 19.1993C21.3567 19.1477 21.3583 19.1735 21.3632 19.1219C21.3989 19.109 21.433 19.0993 21.4703 19.0912Z" fill="#FB7E0D"/>
<path d="M19.8536 18.6943C19.8601 18.6411 19.8682 18.6007 19.8844 18.5507L19.9136 18.4522L19.9218 18.4264C19.9981 18.2069 20.1393 18.0294 20.3049 17.8696C20.412 17.9939 20.4834 18.1182 20.5565 18.265C20.623 18.399 20.6458 18.5265 20.6799 18.6685L20.688 18.7088C20.6766 18.8024 20.6458 18.9525 20.6636 19.0445C20.6701 19.0736 20.7286 19.1413 20.7432 19.1769L20.6864 19.1849C20.649 19.193 20.6214 19.2156 20.5906 19.2366C20.5354 19.2382 20.5127 19.2398 20.4623 19.2124L20.4364 19.2172C20.4023 19.222 20.386 19.2188 20.3536 19.2172C20.326 19.2156 20.3 19.2172 20.2724 19.214L20.1263 19.2124L20.1068 19.2317C20.063 19.2317 20.0208 19.2188 19.9883 19.2511C19.938 19.2511 19.9429 19.2511 19.899 19.2705L19.8487 19.2801L19.8 19.2995L19.6912 19.3495L19.662 19.3592L19.6425 19.3786C19.6085 19.385 19.6003 19.3818 19.576 19.406C19.5533 19.4286 19.5338 19.4399 19.5094 19.4577L19.4851 19.477C19.4299 19.4722 19.3942 19.4189 19.352 19.385C19.3276 19.3673 19.339 19.3754 19.3179 19.3399L19.3357 19.3108C19.4055 19.3156 19.4072 19.3431 19.4607 19.3592C19.524 19.3786 19.6003 19.3624 19.6572 19.3318C19.7059 19.2592 19.7302 19.2963 19.7529 19.1994C19.7302 19.1575 19.7059 19.1268 19.675 19.0913L19.688 19.0381L19.7399 19.0364C19.7854 19.0816 19.8065 19.1413 19.8308 19.1994C19.8763 19.222 19.8828 19.2204 19.9331 19.214C19.9412 19.1623 19.9396 19.1284 19.9315 19.0784C19.964 19.0461 19.9932 19.0429 20.037 19.0316L20.0971 19.0139C20.1214 19.0429 20.1295 19.0574 20.1409 19.0929L20.136 19.122C20.1831 19.1591 20.1799 19.1591 20.2399 19.1543C20.2838 19.0897 20.2838 19.0268 20.2886 18.9509L20.3146 18.9283L20.3601 19.0381C20.3714 19.0671 20.3844 19.0897 20.4006 19.1155C20.4542 19.1155 20.4932 19.1075 20.5321 19.0671C20.5743 19.0203 20.6182 18.9154 20.6279 18.8541L20.5971 18.846L20.5679 18.8363C20.537 18.8718 20.5338 18.8864 20.5192 18.9251C20.5029 18.9638 20.4802 19.0009 20.4396 19.0139C20.412 18.9719 20.3909 18.8993 20.3601 18.8654C20.3568 18.8605 20.313 18.8396 20.3097 18.8363C20.2886 18.8057 20.3325 18.7605 20.2903 18.7185C20.2545 18.7718 20.287 18.8105 20.2513 18.8638C20.2286 18.8977 20.2269 18.9073 20.2205 18.9461L20.201 19.0445C20.1377 18.9832 20.1994 18.917 20.0727 18.917C20.0468 18.9364 20.0224 18.9558 19.9932 18.9719C19.9948 18.9251 20.0045 18.8589 19.9834 18.817C19.9705 18.7911 19.9721 18.8073 19.9721 18.7718L19.9737 18.7492C19.9266 18.6992 19.9104 18.7056 19.8536 18.6943Z" fill="#FEBA48"/>
<path d="M19.4283 19.5625C19.5971 19.4237 19.7383 19.3478 19.9494 19.2897C20.1945 19.2219 20.4656 19.2123 20.6977 19.322L20.9234 19.4285C21.1133 19.5608 21.2513 19.6883 21.3763 19.8852C21.4769 20.0918 21.5402 20.2839 21.55 20.5146C21.5451 20.6163 21.5419 20.7164 21.5175 20.8164C21.4948 20.8955 21.4704 20.9714 21.4363 21.0472L21.4217 21.0795C21.3357 21.2731 21.1636 21.4539 20.9964 21.583C20.7383 21.7573 20.3227 21.838 20.0143 21.7702C19.9445 21.7541 19.8568 21.7121 19.7886 21.7073L19.7383 21.6798C19.4169 21.5023 19.1685 21.2441 19.0663 20.8874C19.0403 20.7906 19.0208 20.6857 19.0159 20.584C18.9964 20.1838 19.1653 19.8594 19.4283 19.5625Z" fill="#851C1B"/>
</g>
<defs>
<clipPath id="clip0_10_679">
<rect width="40.5838" height="40.3464" fill="white" transform="translate(0 0.326904)"/>
</clipPath>
</defs>
</svg>
