<svg width="171" height="50" viewBox="0 0 171 50" fill="none" xmlns="http://www.w3.org/2000/svg">
<path d="M155.772 10.185C155.426 11.2233 155.228 12.3052 155.183 13.3988L154.326 34.4094C154.276 35.6334 154.101 36.8491 153.804 38.0376L153.487 39.3027C153.003 41.2399 152.065 43.034 150.75 44.5367V44.5367C149.758 45.6699 148.571 46.6159 147.246 47.3297L146.535 47.7127C144.051 49.0501 141.274 49.7502 138.453 49.7502L32.0126 49.7502C28.9006 49.7502 25.8512 48.8757 23.2123 47.2263V47.2263C20.6214 45.6071 18.5275 43.3043 17.1611 40.5716L17.0754 40.4001C15.8753 37.9998 15.2505 35.3532 15.2505 32.6696V16.2721C15.2505 14.1768 14.8162 12.1042 13.9751 10.1851L13.8954 10.0033C12.82 7.54957 11.0841 5.44274 8.88134 3.91776V3.91776C6.82907 2.49696 4.44403 1.63148 1.95819 1.40549L0.250488 1.25024L170.75 0.750244L168.895 0.935797C166.818 1.14345 164.802 1.75241 162.958 2.72884L161.382 3.56303C158.73 4.96693 156.721 7.33849 155.772 10.185V10.185Z" 
fill="#F2F4F7"/>
</svg>
